<?xml version="1.0" encoding="UTF-8" standalone="no"?>
<svg width="462px" height="503px" viewBox="0 0 462 503" version="1.1" xmlns="http://www.w3.org/2000/svg" xmlns:xlink="http://www.w3.org/1999/xlink">
    <!-- Generator: sketchtool 39.1 (31720) - http://www.bohemiancoding.com/sketch -->
    <title>D6ED5CB4-222D-4540-A71A-A83A7B817418</title>
    <desc>Created with sketchtool.</desc>
    <defs>
        <polygon id="path-1" points="132.21 66.4413 132.21 0.0248441241 0.4712 0.0248441241 0.4712 66.4413"></polygon>
    </defs>
    <g id="Light" stroke="none" stroke-width="1" fill="none" fill-rule="evenodd">
        <g id="Logos-and-Icons" transform="translate(-902.000000, -1351.000000)">
            <g id="Wifi-Bouy" transform="translate(902.000000, 1351.000000)">
                <path d="M36.5532,400.3589 C18.2392,423.4129 14.7552,418.8449 0.0002,425.8699 L0.0002,444.1759 C51.4382,439.9279 55.4282,370.9979 98.5542,405.8769 C105.8422,411.7709 107.9132,416.2249 113.6312,422.9529 C119.0872,429.3729 125.1112,434.3999 131.4882,437.8939 C127.3092,428.1909 124.5422,417.7499 123.4422,406.8219 C99.4432,385.1009 71.5632,356.2889 36.5532,400.3589" id="Fill-1" fill="#FEFEFE"></path>
                <g id="Group-5" transform="translate(329.000000, 377.735000)">
                    <mask id="mask-2" fill="white">
                        <use xlink:href="#path-1"></use>
                    </mask>
                    <g id="Clip-4"></g>
                    <path d="M95.7032,22.5783 C92.5802,18.8323 83.8362,12.0393 79.5552,8.8543 C56.5622,-8.2487 33.4102,1.5043 17.2032,20.9703 C14.7112,23.9633 11.8332,27.4083 8.5772,30.7883 C7.3452,41.3113 4.5672,51.3663 0.4712,60.7273 C6.2432,57.2363 12.2992,52.2103 18.6702,45.3083 C26.6642,36.6513 38.2372,18.3883 53.8042,18.3883 C84.9252,18.3883 88.1812,62.8053 132.2102,66.4413 L132.2102,48.1353 C113.4892,39.2213 117.6922,48.9573 95.7032,22.5783" id="Fill-3" fill="#FEFEFE" mask="url(#mask-2)"></path>
                </g>
                <path d="M230.6052,396.1237 C212.5042,396.1237 203.0452,411.8997 194.2692,421.8497 C174.0152,444.8167 151.0732,448.6237 131.4882,437.8937 C147.9032,476.0127 186.1002,502.7347 230.6052,502.7347 C274.8882,502.7347 312.9222,476.2767 329.4712,438.4617 C283.4102,466.3197 255.5082,396.1237 230.6052,396.1237" id="Fill-6" fill="#FEFEFE"></path>
                <path d="M228.2993,377.8176 C270.9853,377.8176 277.6853,427.9866 310.3343,424.4156 C321.2363,423.2226 330.3413,416.0346 337.5773,408.5236 C338.0533,404.4546 338.3063,400.3186 338.3063,396.1236 C338.3063,340.3376 295.0183,294.5666 239.8803,289.9096 L239.8803,176.2186 C250.7803,172.6576 258.6573,162.4136 258.6573,150.3236 C258.6573,135.2776 246.4603,123.0806 231.4143,123.0806 C216.3683,123.0806 204.1713,135.2776 204.1713,150.3236 C204.1713,161.1216 210.4543,170.4516 219.5633,174.8596 L219.5633,290.0666 C165.2683,295.5396 122.9043,340.9346 122.9043,396.1236 C122.9043,399.7346 123.0883,403.3036 123.4423,406.8226 C133.7693,416.1696 143.3783,424.2046 152.5273,424.5536 C181.1143,425.6416 190.7363,377.8176 228.2993,377.8176" id="Fill-8" fill="#FEFEFE"></path>
                <path d="M274.1961,231.9991 C278.4141,228.8891 282.3071,224.5681 285.5701,220.4791 C300.6381,201.5951 313.1361,179.9651 312.5471,145.3821 C312.0611,140.5221 311.5741,135.6601 311.0881,130.8001 C309.1591,121.6621 306.9881,113.3761 303.6521,105.7191 C299.8911,97.0881 295.0151,89.1921 289.6531,82.0961 C286.7851,78.7911 283.9171,75.4851 281.0501,72.1801 C280.5631,71.6941 280.0771,71.2081 279.5911,70.7221 C276.6271,73.4441 273.6611,76.1661 270.6961,78.8881 C270.5501,79.0831 270.4051,79.2771 270.2591,79.4711 C274.3371,82.5221 277.6341,87.4051 280.6121,91.5741 C292.1011,107.6571 304.0951,134.1881 298.4021,163.7551 C297.2651,169.6601 296.1681,175.4861 294.1731,180.6701 C289.4981,192.8241 283.4671,202.7151 276.0921,212.0221 C272.8511,216.1111 268.2101,219.0701 265.0091,223.1041 L273.9041,231.9991 L274.1961,231.9991 Z" id="Fill-10" fill="#FEFEFE"></path>
                <path d="M364.6044,32.0801 C379.0334,51.2311 389.6584,73.0361 397.4134,99.0111 C399.9874,107.6301 400.9604,116.8851 402.6634,126.4251 C405.1114,140.1431 404.3894,162.7891 401.9344,175.7131 C400.5524,182.9841 399.9754,189.7881 397.9974,196.4191 C390.0944,222.9141 379.8504,244.3371 365.4794,263.9341 C361.7864,268.9691 357.8274,273.5621 353.9594,278.3701 C352.0154,280.3621 350.0704,282.3561 348.1264,284.3481 C346.1624,286.7871 341.5324,292.0531 338.7944,293.3891 C338.7454,293.4861 338.6974,293.5841 338.6484,293.6811 C341.0784,295.9651 343.5094,298.2501 345.9394,300.5341 L347.9814,302.5761 C351.2374,299.4171 354.4944,296.2571 357.7504,293.0981 C363.3724,287.4771 368.8274,281.2501 373.6454,274.8701 C398.4274,242.0501 417.6854,201.8141 416.9534,143.7781 C416.8084,140.6681 416.6624,137.5561 416.5164,134.4461 C415.8844,128.8081 415.2524,123.1681 414.6204,117.5301 C411.2054,100.3601 407.5634,84.8761 401.4964,70.5761 C394.5864,54.2881 386.1074,39.4861 376.2704,26.1011 C372.3334,21.2411 368.3954,16.3801 364.4584,11.5191 C362.8544,9.7701 361.2504,8.0201 359.6464,6.2701 C357.5084,4.1801 355.3694,2.0901 353.2304,0.0001 C350.1684,2.9641 347.1054,5.9301 344.0434,8.8951 C346.2304,11.0821 348.4184,13.2691 350.6054,15.4571 C355.1384,21.0821 360.2254,26.2681 364.6044,32.0801" id="Fill-12" fill="#FEFEFE"></path>
                <path d="M324.504,64.5979 C335.289,79.8729 343.117,96.7879 348.418,117.8219 C349.872,123.5879 350.138,129.7009 351.189,135.9039 C351.286,138.1399 351.383,140.3759 351.481,142.6119 C352.681,149.8689 351.544,162.9959 350.314,169.2969 C348.522,178.4749 347.144,187.4319 344.044,195.3979 C337.383,212.5149 329.571,226.9279 319.254,240.1649 C315.598,244.8559 311.339,249.2469 307.151,253.4349 C305.402,255.0869 303.652,256.7399 301.902,258.3929 C304.138,260.5309 306.374,262.6699 308.61,264.8089 C309.436,265.6349 310.262,266.4609 311.089,267.2879 C319.932,260.6209 328.233,250.0119 334.711,240.8939 C352.105,216.4159 365.372,186.8729 364.75,144.5069 C364.653,142.4659 364.556,140.4239 364.459,138.3829 C363.973,133.9599 363.486,129.5359 363,125.1129 C360.443,112.2799 357.786,100.5579 353.23,89.8249 C347.993,77.4849 341.609,66.2509 334.274,55.9949 C331.358,52.3499 328.441,48.7029 325.525,45.0579 C324.164,43.5509 322.803,42.0439 321.442,40.5379 C319.692,38.8369 317.942,37.1349 316.192,35.4339 C313.325,38.1559 310.456,40.8779 307.589,43.5999 C307.443,43.7939 307.297,43.9889 307.151,44.1829 C313.288,48.8009 319.957,58.1589 324.504,64.5979" id="Fill-14" fill="#FEFEFE"></path>
                <path d="M150.8427,157.1935 C151.3287,162.0535 151.8147,166.9155 152.3007,171.7755 C154.2307,180.9135 156.4017,189.1995 159.7377,196.8565 C163.4987,205.4875 168.3747,213.3835 173.7367,220.4795 C176.6037,223.7845 179.4727,227.0905 182.3397,230.3955 C182.8257,230.8815 183.3117,231.3675 183.7977,231.8535 C186.7627,229.1315 189.7287,226.4095 192.6927,223.6875 C192.8387,223.4925 192.9847,223.2985 193.1307,223.1045 C189.0527,220.0535 185.7557,215.1705 182.7777,211.0015 C171.2887,194.9185 159.2937,168.3875 164.9877,138.8205 C166.1247,132.9155 167.2217,127.0895 169.2157,121.9055 C173.8907,109.7515 179.9227,99.8605 187.2977,90.5535 C190.5387,86.4645 195.1797,83.5055 198.3797,79.4715 L189.4847,70.5765 L189.1937,70.5765 C184.9757,73.6865 181.0817,78.0075 177.8197,82.0965 C162.7507,100.9805 150.2537,122.6105 150.8427,157.1935" id="Fill-16" fill="#FEFEFE"></path>
                <path d="M46.8731,168.13 C47.5051,173.768 48.1371,179.407 48.7691,185.045 C52.1831,202.215 55.8261,217.7 61.8921,231.999 C68.8031,248.287 77.2811,263.09 87.1191,276.474 C91.0561,281.334 94.9941,286.196 98.9311,291.056 C100.5351,292.806 102.1391,294.556 103.7431,296.306 C105.8811,298.396 108.0201,300.486 110.1591,302.576 C113.2211,299.611 116.2841,296.646 119.3451,293.681 L112.7841,287.119 C108.2511,281.494 103.1641,276.307 98.7851,270.496 C84.3561,251.344 73.7311,229.539 65.9751,203.564 C63.4021,194.946 62.4291,185.69 60.7261,176.15 C58.2781,162.433 58.9991,139.786 61.4551,126.863 C62.8371,119.591 63.4141,112.788 65.3921,106.157 C73.2951,79.662 83.5391,58.239 97.9101,38.642 C101.6031,33.607 105.5621,29.014 109.4301,24.206 C111.3741,22.213 113.3181,20.22 115.2631,18.227 C117.2271,15.789 121.8571,10.522 124.5951,9.186 C124.6441,9.089 124.6921,8.992 124.7411,8.895 C122.3111,6.61 119.8801,4.325 117.4501,2.041 C116.7691,1.361 116.0891,0.68 115.4081,0 C112.1521,3.159 108.8951,6.319 105.6381,9.478 C100.0171,15.099 94.5621,21.325 89.7441,27.706 C64.9621,60.526 45.7041,100.761 46.4361,158.798 C46.5811,161.908 46.7271,165.019 46.8731,168.13" id="Fill-18" fill="#FEFEFE"></path>
                <path d="M98.6392,158.0684 C98.7362,160.1094 98.8332,162.1514 98.9312,164.1924 C99.4172,168.6154 99.9032,173.0394 100.3892,177.4624 C102.9462,190.2954 105.6032,202.0184 110.1592,212.7504 C115.3972,225.0914 121.7802,236.3254 129.1152,246.5814 C132.0312,250.2264 134.9482,253.8724 137.8642,257.5174 C139.2252,259.0244 140.5872,260.5314 141.9482,262.0384 C143.6972,263.7394 145.4472,265.4404 147.1972,267.1414 C150.0652,264.4204 152.9332,261.6974 155.8002,258.9754 C155.9462,258.7814 156.0922,258.5864 156.2382,258.3924 C150.1022,253.7744 143.4322,244.4174 138.8852,237.9774 C128.1002,222.7024 120.2722,205.7874 114.9712,184.7534 C113.5182,178.9874 113.2522,172.8744 112.2002,166.6714 C112.1032,164.4364 112.0062,162.1994 111.9092,159.9644 C110.7092,152.7064 111.8452,139.5794 113.0752,133.2794 C114.8672,124.1014 116.2452,115.1434 119.3452,107.1774 C126.0062,90.0604 133.8182,75.6474 144.1352,62.4104 C147.7912,57.7194 152.0502,53.3284 156.2382,49.1414 C157.9872,47.4884 159.7382,45.8354 161.4872,44.1834 C159.2522,42.0444 157.0152,39.9054 154.7802,37.7674 C153.9532,36.9404 153.1272,36.1144 152.3012,35.2884 C143.4572,41.9544 135.1572,52.5634 128.6782,61.6814 C111.2852,86.1594 98.0172,115.7034 98.6392,158.0684" id="Fill-20" fill="#FEFEFE"></path>
            </g>
        </g>
    </g>
</svg>