<svg xmlns="http://www.w3.org/2000/svg" viewBox="0 0 193.95486 193.95377" height="206.884" width="206.885"><path d="M96.977 0A96.977 96.977 0 0 0 0 96.977a96.977 96.977 0 0 0 96.977 96.977 96.977 96.977 0 0 0 96.978-96.977A96.977 96.977 0 0 0 96.977 0zM67.16 65.884c4.921.019 9.73.267 14.496 1.283 5.505 1.172 10.437 3.921 12.467 9.454.872 2.386.782 4.493.79 6.977v25.814c-.008 3.007.096 5.651-1.46 8.372-4.171 7.312-14.58 9.056-22.262 9.07-7.626.014-27.168.58-33.489-.698-4.646-.941-9.028-2.19-12.488-5.65-5.4-5.415-4.256-13.18-4.256-20.164V84.993C21 76.886 23.499 71.71 31.424 68.57c6.832-2.635 19.35-2.72 26.74-2.587 3.05-.037 6.044-.109 8.997-.098zm94.524.266c2.85-.008 6.091.151 6.855 3.521 1.137 5.038-3.83 5.534-7.347 5.555-12.408 0-23.632-.43-35.83.304-6.446.683-12.156 1.349-12.31 9.463v6.977h49.536c1.64 0 4.046-.132 5.476.712 2.596 1.535 2.895 5.936.586 7.841-1.717 1.416-4.646 1.214-6.76 1.214h-48.838c0 3.482-.642 9.635 1.75 12.286 2.47 2.735 6.685 3.05 10.11 3.064h36.28c2.219 0 5.574-.182 7.374 1.29 2.31 1.898 1.988 6.21-.558 7.765-1.396.851-3.809.712-5.42.712h-37.675c-9.838-.014-22.863-3.405-23.024-15.349V83.598c0-2.093-.084-4.27.593-6.28 2.7-7.98 13.451-11.072 21.035-11.162h36.978c.382 0 .782-.005 1.189-.006zM70.36 76.042c-.433.008-.855.022-1.261.041H41.192c-3.014.886-5.987 1.793-7.557 4.751-1.095 2.072-.816 5.96-.816 8.345v18.14c.007 1.465-.049 3.467.516 4.82 1.912 4.577 9.224 4.94 13.438 4.947h23.024c3.872-.007 9.579-.216 12.14-3.635 1.318-1.758 1.109-4.06 1.116-6.132V85.69c-.007-3.691.209-6.077-3.503-8.058-2.546-1.362-6.154-1.645-9.19-1.591z"/></svg>