<?xml version="1.0" encoding="UTF-8" standalone="no"?>
<svg width="63px" height="73px" viewBox="0 0 63 73" version="1.1" xmlns="http://www.w3.org/2000/svg" xmlns:xlink="http://www.w3.org/1999/xlink">
    <!-- Generator: sketchtool 39.1 (31720) - http://www.bohemiancoding.com/sketch -->
    <title>85F6CAB3-A567-43B6-BE8C-2E0BB8A26928</title>
    <desc>Created with sketchtool.</desc>
    <defs></defs>
    <g id="Light" stroke="none" stroke-width="1" fill="none" fill-rule="evenodd">
        <g id="Home-90/10-Alt" transform="translate(-1015.000000, -1081.000000)" fill="#FFFFFF">
            <g id="Benefits" transform="translate(454.000000, 654.000000)">
                <g id="Marine-Science" transform="translate(521.000000, 321.000000)">
                    <g id="Content" transform="translate(40.000000, 102.000000)">
                        <g id="Anchor-Icon" transform="translate(0.000000, 4.000000)">
                            <path d="M53.585494,58.0267033 C49.9220703,61.2664122 43.7928178,64.3435395 38.9654799,66.1855838 C35.3208339,67.5763935 32.3605277,68.1601074 32.0900406,68.1601074 C32.0900406,68.1601074 31.6824471,68.4214896 31.4341653,68.7952334 L31.266508,68.7952334 C31.0180771,68.4214896 30.6106327,68.1601074 30.6106327,68.1601074 C30.3399965,68.1601074 27.3798394,67.5763935 23.7350443,66.1855838 C18.9077065,64.3435395 12.7786029,61.2664122 9.11503027,58.0267033 C1.63870722,51.4151042 2.07327492,43.4202954 2.10963792,43.3366948 C2.17714793,43.1809682 2.07580841,43.1587641 2.34033436,43.1809682 C2.60486031,43.2033213 2.34033436,43.49719 2.34033436,43.49719 C2.34033436,43.49719 2.55225318,51.1908281 8.43501229,56.9586723 C14.1739587,62.585543 25.5736115,66.2848315 26.6187498,66.6947873 C28.5942743,67.4695457 30.1885834,67.7407633 31.3502621,67.803799 C32.5119409,67.7407633 34.10625,67.4695457 36.0819235,66.6947873 C37.1270618,66.2848315 48.5267146,62.585543 54.265512,56.9586723 C60.1482711,51.1908281 60.3603389,43.49719 60.3603389,43.49719 C60.3603389,43.49719 60.095813,43.2033213 60.3603389,43.1809682 C60.6248649,43.1587641 60.5233763,43.1809682 60.5910353,43.3366948 C60.6273984,43.4202954 61.0619661,51.4151042 53.585494,58.0267033 M16.7479825,18.5611179 C15.9034368,18.4617211 15.9530634,18.6603656 15.2576954,18.5611179 C14.5621785,18.4617211 15.8985189,17.9544548 16.1020921,17.8656385 C16.4904609,17.696202 16.4001495,17.9650353 17.3440973,18.3127004 C18.2227706,18.6363733 29.9076643,20.9403815 31.515535,21.2567524 C33.1234057,20.9403815 44.8082993,18.6363733 45.6869726,18.3127004 C46.6309204,17.9650353 46.540609,17.696202 46.9289778,17.8656385 C47.132551,17.9544548 48.4688914,18.4617211 47.7733745,18.5611179 C47.0780065,18.6603656 47.1276331,18.4617211 46.2830874,18.5611179 C45.4386908,18.6603656 32.4731934,21.6407786 32.4731934,21.6407786 C32.4731934,21.6407786 32.1623195,21.7854776 31.8350525,21.87489 C31.8073332,21.9070785 31.7653071,21.9307728 31.7004796,21.9388199 C31.6447428,21.9458238 31.5818527,21.9443336 31.515535,21.9377767 C31.4492172,21.9443336 31.3863271,21.9458238 31.3305903,21.9388199 C31.2657628,21.9307728 31.2237368,21.9070785 31.1960174,21.87489 C30.8687504,21.7854776 30.5578765,21.6407786 30.5578765,21.6407786 C30.5578765,21.6407786 17.5923791,18.6603656 16.7479825,18.5611179 M31.9368391,14.4585794 C30.0920128,14.3268452 29.3391197,14.6844947 29.3391197,14.6844947 C29.1508965,14.2891429 32.0308762,13.9691956 32.8026959,14.1009298 C33.5745155,14.2326641 33.7815164,14.5903137 31.9368391,14.4585794 M31.4296944,9.25373521 C30.6529568,9.20202505 28.4765416,8.81680667 28.6520974,6.1113368 C28.7245254,4.9963643 29.7517802,3.93205883 31.3682946,3.86499954 C31.3885625,3.86514856 31.4095755,3.86440346 31.4296944,3.86485052 C31.4499623,3.86440346 31.4708263,3.86514856 31.4910942,3.86499954 C33.1076086,3.93205883 34.1348635,4.9963643 34.2072914,6.1113368 C34.3828472,8.81680667 32.206432,9.20202505 31.4296944,9.25373521 M26.4776196,7.70317536 C25.9826952,6.64214835 25.8755436,5.08473355 26.458991,3.95545507 C27.0425874,2.82602758 28.3038173,0.548395987 31.7004796,0.623800435 C35.0972909,0.699055862 36.0592712,2.84480418 36.0592712,2.84480418 C36.8309418,3.25893256 36.987869,4.76195482 36.6616452,4.80233942 C35.60682,4.93347759 34.9674869,6.81650251 35.4191929,5.63059618 C35.8708989,4.44483888 34.609818,1.508387 31.7749939,1.2261419 C28.9403189,0.943747767 27.5884795,3.39066682 27.5884795,3.39066682 C25.7813575,6.85405571 28.2096312,9.26342155 31.515535,10.2421892 C34.8214387,11.2209568 35.7391575,6.11997999 35.8333436,6.87298133 C35.9273807,7.62583365 34.609818,10.2798914 32.9532149,11.1457014 C31.2967608,12.0115113 31.4474288,11.8610005 29.6403068,10.6940198 C27.8331847,9.52689006 26.9861055,8.79281435 26.4776196,7.70317536 M62.3187251,48.4431854 C61.9245442,45.8518653 61.0914737,43.2750003 60.9510887,42.9733825 C60.69312,42.4185786 59.9190649,42.6637176 59.7512586,42.9861982 C59.6736146,43.1355169 58.6479991,44.4001062 57.4548753,45.6179029 C56.0718889,47.0295755 54.4795172,48.4251539 54.1263191,48.6883243 C53.4683574,49.1786023 54.1521011,49.5784247 54.1521011,49.5784247 C54.1521011,49.5784247 55.6358309,50.3266573 56.2162977,50.5460157 C56.7969135,50.7653741 56.680075,50.9854776 56.680075,50.9854776 C50.2345835,58.9953375 38.9829163,60.4482888 37.1945718,60.6718198 C35.4062274,60.8953508 35.741542,58.7718065 35.741542,58.7718065 C35.741542,58.7718065 34.5251697,27.7319976 34.5066901,26.7110571 C34.4880615,25.6902657 34.7479676,25.439613 34.9984848,25.3282945 C35.1265005,25.2713686 37.4467284,23.946277 39.8511575,22.8688577 C42.1543962,21.8367407 44.541687,21.0514019 44.8460036,20.9551346 C45.4677514,20.7582783 45.5312376,20.8041767 45.7555258,20.8734713 C46.2659491,21.0312841 46.8970857,20.9199657 47.0641469,20.8734713 C47.231208,20.8271258 48.9854249,20.149678 48.4377444,18.3398222 C47.9499735,16.7278658 46.3124461,17.0591387 46.1546247,17.1519786 C45.9968033,17.2448185 45.2264739,17.32827 45.2264739,17.32827 C45.2264739,17.32827 36.3164947,17.2540578 35.0263532,17.2169516 C33.7363607,17.1798455 34.0055066,16.873608 33.8290566,16.3351964 C33.6527556,15.7969338 34.0239861,15.899013 34.4938736,15.5649087 C34.9639102,15.2308044 34.6737513,14.4326498 34.2560238,14.274986 C33.8384454,14.1171731 33.8384454,13.8759087 33.8384454,13.4953099 C33.8384454,13.1148602 34.6366431,12.499703 34.6366431,12.499703 C34.9633141,12.1724536 37.8209395,9.9897482 37.828987,6.21848264 C37.839419,1.30869934 33.291063,0.227852572 31.7004796,0 L31.5076364,0 L31.1589093,0 C29.5683259,0.227852572 25.0201188,1.30869934 25.0304018,6.21848264 C25.0384494,9.9897482 27.8960748,12.1724536 28.2227457,12.499703 C28.2227457,12.499703 29.0209435,13.1148602 29.0209435,13.4953099 C29.0209435,13.8759087 29.0209435,14.1171731 28.603365,14.274986 C28.1856376,14.4326498 27.8956277,15.2308044 28.3655152,15.5649087 C28.8354027,15.899013 29.2066332,15.7969338 29.0303323,16.3351964 C28.8538823,16.873608 29.1231772,17.1798455 27.8330357,17.2169516 C26.5428941,17.2540578 17.6329149,17.32827 17.6329149,17.32827 C17.6329149,17.32827 16.8625856,17.2448185 16.7047642,17.1519786 C16.5470918,17.0591387 14.9094154,16.7278658 14.4216444,18.3398222 C13.8741129,20.149678 15.6281808,20.8271258 15.795242,20.8734713 C15.9623032,20.9199657 16.5934397,21.0312841 17.103863,20.8734713 C17.3283003,20.8041767 17.3916375,20.7582783 18.0135343,20.9551346 C18.3177018,21.0514019 20.7051417,21.8367407 23.0083803,22.8688577 C25.4126604,23.946277 27.7328884,25.2713686 27.860904,25.3282945 C28.1114213,25.439613 28.3713273,25.6902657 28.3526987,26.7110571 C28.3342192,27.7319976 27.1178469,58.7718065 27.1178469,58.7718065 C27.1178469,58.7718065 27.4531615,60.8953508 25.664817,60.6718198 C23.8764726,60.4482888 12.6248053,58.9953375 6.17931381,50.9854776 C6.17931381,50.9854776 6.0624753,50.7653741 6.64309114,50.5460157 C7.22355795,50.3266573 8.70728773,49.5784247 8.70728773,49.5784247 C8.70728773,49.5784247 9.39103143,49.1786023 8.7330697,48.6883243 C8.37987167,48.4251539 6.78749995,47.0295755 5.40451357,45.6179029 C4.21153878,44.4001062 3.18577421,43.1355169 3.10813025,42.9861982 C2.94032393,42.6637176 2.16626883,42.4185786 1.90830014,42.9733825 C1.7679151,43.2750003 0.934844641,45.8518653 0.540663716,48.4431854 C0.210118048,50.6163535 0.293127037,52.8926439 0.334258959,52.9455462 C0.424570355,53.0616333 0.463317818,53.4358242 1.08253209,53.138975 C1.70189539,52.8422749 2.94032393,52.3391812 2.94032393,52.3391812 C2.94032393,52.3391812 3.64999862,51.8618681 3.92093281,52.3391812 C4.06146688,52.5870025 7.02192211,57.8504118 13.4940897,62.7704776 C19.4893655,67.3278271 28.6874172,71.3507885 28.899336,71.4667265 C29.475183,71.7814582 31.1325312,72.992847 31.1589093,73 L31.7004796,73 C31.7268577,72.992847 33.3842059,71.7814582 33.9600528,71.4667265 C34.1719716,71.3507885 43.3700233,67.3278271 49.3652991,62.7704776 C55.8374667,57.8504118 58.797922,52.5870025 58.9386051,52.3391812 C59.2093902,51.8618681 59.9190649,52.3391812 59.9190649,52.3391812 C59.9190649,52.3391812 61.1576425,52.8422749 61.7768568,53.138975 C62.396071,53.4358242 62.4348185,53.0616333 62.5251299,52.9455462 C62.5662618,52.8926439 62.6492708,50.6163535 62.3187251,48.4431854" id="Anchor-Symbol"></path>
                        </g>
                    </g>
                </g>
            </g>
        </g>
    </g>
</svg>