<?xml version="1.0" encoding="UTF-8" standalone="no"?>
<svg
   xmlns:dc="http://purl.org/dc/elements/1.1/"
   xmlns:cc="http://creativecommons.org/ns#"
   xmlns:rdf="http://www.w3.org/1999/02/22-rdf-syntax-ns#"
   xmlns:svg="http://www.w3.org/2000/svg"
   xmlns="http://www.w3.org/2000/svg"
   xml:space="preserve"
   viewBox="-0.258 -0.548 97.680003 80.294326"
   height="80.294327"
   width="97.68"
   y="0px"
   x="0px"
   id="Layer_1"
   version="1.1"><metadata
     id="metadata23"><rdf:RDF><cc:Work
         rdf:about=""><dc:format>image/svg+xml</dc:format><dc:type
           rdf:resource="http://purl.org/dc/dcmitype/StillImage" /><dc:title></dc:title></cc:Work></rdf:RDF></metadata><defs
     id="defs21" /><g
     transform="translate(-13.18,-20.513)"
     id="g3"><polygon
       class="content"
       id="polygon9"
       points="12.922,19.965 28.422,35.809 34.375,30.465 28.984,20.012 "
       style="fill:#000000" /><path
       class="content"
       id="path11"
       d="m 82.797,64.348 c 2.93,0.805 6.078,-0.852 6.914,-3.828 0.805,-2.93 -0.906,-6.008 -3.859,-6.836 l -2.297,-0.641 -2.977,10.648 2.219,0.657 z"
       style="fill:#000000" /><path
       class="content"
       id="path13"
       d="M 80.992,52.363 62.437,47.136 c -1.219,-0.32 -2.445,0.414 -2.781,1.633 l -1.742,6.203 c -0.344,1.219 0.32,2.469 1.57,2.836 l 18.555,5.172 2.953,-10.617 z"
       style="fill:#000000" /><path
       class="content"
       id="path15"
       d="M 83.922,69.988 C 82.508,68.644 80.75,67.574 78.695,67.011 l -22.492,-6.297 0,0 -13.82,-24.516 c -0.727,-1.266 -1.898,-2.273 -3.414,-2.688 -3.031,-0.852 -6.18,0.93 -7.008,3.961 -0.414,1.438 -0.219,2.906 0.438,4.148 l 17.289,30.32 c 0,0 1.414,2.273 4.977,3.445 l 31.43,8.812 14.578,14.797 c 0.484,0.508 1.117,0.898 1.875,1.117 2.195,0.609 4.492,-0.703 5.133,-2.875 0.414,-1.539 -0.078,-3.156 -1.172,-4.156 L 83.922,69.988 Z"
       style="fill:#000000" /><path
       class="content"
       id="path17"
       d="m 100.695,76.113 3.266,4.273 6.641,-7.25 -5.609,-3.125 c 0.531,-3.93 -1.906,-7.734 -5.812,-8.836 -4.297,-1.195 -8.766,1.297 -9.961,5.594 -1.219,4.32 1.297,8.766 5.594,9.961 2.045,0.586 4.124,0.266 5.881,-0.617 z"
       style="fill:#000000" /></g></svg>