<?xml version="1.0" encoding="UTF-8" standalone="no"?>
<svg width="70px" height="37px" viewBox="0 0 70 37" version="1.1" xmlns="http://www.w3.org/2000/svg" xmlns:xlink="http://www.w3.org/1999/xlink">
    <!-- Generator: sketchtool 39.1 (31720) - http://www.bohemiancoding.com/sketch -->
    <title>7CB2EF2B-62BA-4166-B256-F4C95940933C</title>
    <desc>Created with sketchtool.</desc>
    <defs></defs>
    <g id="Light" stroke="none" stroke-width="1" fill="none" fill-rule="evenodd">
        <g id="Home-90/10-Alt" transform="translate(-1011.000000, -862.000000)" fill="#FFFFFF">
            <g id="Benefits" transform="translate(454.000000, 654.000000)">
                <g id="Divers" transform="translate(128.000000, 80.000000)">
                    <g id="Content" transform="translate(0.000000, 109.000000)">
                        <g id="Goggles-Icon" transform="translate(429.000000, 19.000000)">
                            <path d="M63.816751,29.5660363 C63.022012,29.8003225 60.7811687,30.3074485 58.3875341,30.5898912 C55.9127952,30.8817958 53.2856867,30.9440744 52.6069116,30.872334 C51.9811285,30.8061011 50.2505261,30.4377958 48.6711687,29.1600248 C46.8802651,27.7110935 45.2538193,25.3288302 45.1044016,25.1881737 C44.9679157,25.059521 43.3827952,22.28325 42.1350241,19.0626966 C40.8133173,15.6510706 39.8268514,11.7847118 39.7454659,11.6485744 C39.5873333,11.3837844 39.2183574,9.58321183 40.0265904,9.03597901 C40.0265904,9.03597901 42.3634378,6.58225763 43.7339197,5.91145611 C45.1044016,5.24065458 49.1104257,6.05267748 50.8674538,6.15859351 C52.2543815,6.24219656 57.6495823,6.68817366 59.1606265,6.79408969 C60.6716707,6.90000573 62.7625341,7.0412271 63.5004859,8.84179962 C63.7948233,9.55976908 64.3657871,12.3134447 64.5898434,15.4792042 C64.9276145,20.252063 64.8195221,25.3837653 64.7831165,26.1237653 C64.7831165,26.1237653 64.8310482,29.2669294 63.816751,29.5660363 L63.816751,29.5660363 Z M48.4651044,31.4030439 C47.3543815,30.5325553 41.6167711,25.7015134 38.4725341,15.9267347 C38.2615502,15.2707615 37.8542008,14.7728149 37.2577952,14.8394714 C36.6615301,14.9059866 36.5069116,14.4844408 37.0811084,14.4622691 C37.6554458,14.4400973 38.384261,14.3512691 39.0246627,15.9710782 C39.3157671,16.7072653 40.5546827,20.5849218 42.5363293,23.8705782 C44.7178554,27.4875401 47.5860281,30.6510401 48.4651044,31.4030439 C48.5949839,31.5047233 48.6624538,31.5531622 48.6543012,31.5482195 C48.6093213,31.521105 48.5445221,31.4709714 48.4651044,31.4030439 L48.4651044,31.4030439 Z M41.1385783,36.6977156 C41.1385783,36.6977156 40.2776345,36.3446622 39.5748233,36.0092615 C38.872012,35.6738607 38.7138795,35.3384599 37.7531365,35.4796813 C37.1773936,35.5642729 36.1351245,35.598166 35.3921124,35.6117233 L35.3907068,35.6209027 C35.3907068,35.6209027 35.2232972,35.6209027 34.9614297,35.6180782 C34.6995622,35.6209027 34.5321526,35.6209027 34.5321526,35.6209027 L34.5306064,35.6117233 C33.7875944,35.598166 32.7454659,35.5642729 32.1695823,35.4796813 C31.2089799,35.3384599 31.0508474,35.6738607 30.3480361,36.0092615 C29.6452249,36.3446622 28.7842811,36.6977156 28.7842811,36.6977156 L27.712494,35.6209027 C27.712494,35.6209027 29.1005462,32.9023912 30.3128956,32.5316851 C31.525245,32.160979 31.7712289,31.9138416 31.8063695,31.8255782 C31.8347631,31.7542615 33.747253,32.0059179 34.9614297,32.0862729 C36.1754659,32.0059179 38.0880964,31.7542615 38.11649,31.8255782 C38.1516305,31.9138416 38.3976145,32.160979 39.6099639,32.5316851 C40.8223133,32.9023912 42.2103655,35.6209027 42.2103655,35.6209027 L41.1385783,36.6977156 Z M21.9765703,31.4030439 C21.8971526,31.4709714 21.832494,31.521105 21.7875141,31.5482195 C21.7793614,31.5531622 21.8468313,31.5047233 21.9765703,31.4030439 C22.8556466,30.6510401 25.7238193,27.4875401 27.9053454,23.8705782 C29.886992,20.5849218 31.1259076,16.7072653 31.417012,15.9710782 C32.0575542,14.3512691 32.7863695,14.4400973 33.3605663,14.4622691 C33.9347631,14.4844408 33.7802851,14.9059866 33.1838795,14.8394714 C32.5876145,14.7728149 32.1801245,15.2707615 31.9691406,15.9267347 C28.8250442,25.7015134 23.0872932,30.5325553 21.9765703,31.4030439 L21.9765703,31.4030439 Z M13.2494819,30.3606889 C10.2522731,30.095334 7.24902008,29.3838607 6.55520482,29.1776775 C5.30771486,28.8069714 5.29464257,25.9096737 5.23743373,25.2587844 C4.6224739,18.2683263 5.67669076,11.5073531 6.32679116,9.38903244 C6.97689157,7.27071183 7.64456225,7.0412271 8.59335743,6.63521565 C9.54215261,6.2292042 12.0371325,6.38807824 12.0371325,6.38807824 C13.2846225,6.38807824 23.317253,5.87615076 24.318759,5.82319275 C25.3202651,5.77023473 26.0582169,5.6643187 27.0948635,6.19389885 C28.13151,6.72347901 30.0115301,8.94771565 30.0115301,8.94771565 C30.9312289,9.8717271 30.6089197,11.1542996 30.5737791,11.5426584 C30.5386386,11.9310172 28.9481767,16.9425401 27.9733775,19.1686126 C23.2118313,30.0426584 18.4502851,30.3604065 18.4502851,30.3604065 C18.1773133,30.3681737 15.6412892,30.572521 13.2494819,30.3606889 L13.2494819,30.3606889 Z M26.0126747,4.1803645 C26.4027349,4.2351584 27.2560884,4.32342176 28.1866104,5.04647519 C29.4917309,6.06044466 30.9289799,7.82204008 31.2791205,8.09685687 C31.5016305,8.27154771 31.9428554,9.09133779 32.028739,10.0740973 C32.174502,11.7393798 31.5789398,13.7081469 31.1666707,15.1957729 C30.5886787,17.2807653 32.2911687,11.2379027 31.7851446,9.66737977 C31.6788795,9.33762786 31.4660683,8.7802271 31.1291406,8.34173473 C29.8615502,6.69142176 27.3201847,4.7393187 26.5560884,4.57578435 C25.5890201,4.3686126 23.875988,4.19914695 21.9456466,4.27441794 C21.9456466,4.27441794 25.0755462,4.04846374 26.0126747,4.1803645 L26.0126747,4.1803645 Z M34.6568313,16.3074676 L35.1420522,16.3074676 L35.2179558,16.3074676 L35.7031767,16.3074676 C36.3611486,16.5279141 36.405004,16.8363416 36.4928554,17.0127271 C36.5805663,17.1889714 38.0720723,24.8577156 38.1378554,26.0476469 C38.2036386,27.2375782 38.1378554,30.2786393 38.1378554,30.2786393 C38.1378554,30.2786393 38.4448434,30.8956355 37.3043213,31.0499905 C36.3775944,31.1752538 35.4829157,31.142208 35.180004,31.1254027 C34.8770924,31.142208 33.9824137,31.1752538 33.0556867,31.0499905 C31.9151647,30.8956355 32.2221526,30.2786393 32.2221526,30.2786393 C32.2221526,30.2786393 32.1563695,27.2375782 32.2221526,26.0476469 C32.2880763,24.8577156 33.7794418,17.1889714 33.8672932,17.0127271 C33.955004,16.8363416 33.9988594,16.5279141 34.6568313,16.3074676 L34.6568313,16.3074676 Z M38.5439398,10.0740973 C38.6298233,9.09133779 39.0710482,8.27154771 39.2935582,8.09685687 C39.6436988,7.82204008 41.0808072,6.06044466 42.3859277,5.04647519 C43.3165904,4.32342176 44.1699438,4.2351584 44.560004,4.1803645 C45.4971325,4.04846374 48.6270321,4.27441794 48.6270321,4.27441794 C46.6965502,4.19914695 44.9835181,4.3686126 44.0164498,4.57578435 C43.252494,4.7393187 40.7111285,6.69142176 39.4435382,8.34173473 C39.1066104,8.7802271 38.8937992,9.33762786 38.7875341,9.66737977 C38.28151,11.2379027 39.984,17.2807653 39.406008,15.1957729 C38.993739,13.7081469 38.3981767,11.7393798 38.5439398,10.0740973 L38.5439398,10.0740973 Z M69.9316305,19.6556851 C69.8635984,18.803979 69.9725341,15.6287576 69.5272329,13.785395 C69.2760482,12.7452996 68.6284779,12.6323225 68.6142811,12.6323225 C68.5752048,12.6323225 68.4447631,12.5012691 68.2361687,12.1999027 C68.043739,11.9221202 67.4315904,12.0559981 67.377755,12.0787347 C67.4143012,12.009395 67.1014096,10.2869179 67.1014096,10.2869179 C67.1014096,10.2869179 67.1912289,10.7982805 66.9318916,9.68404389 C66.6842209,8.61994084 66.4147631,7.92739122 66.3319719,7.61373855 C66.1624538,6.97174618 65.249502,5.80554008 65.2625743,5.72687977 C65.2756466,5.64836069 65.5885382,5.29445992 65.5103855,5.28146756 C65.4320924,5.26833397 65.0407671,4.90144084 64.871249,4.98010115 C64.7017309,5.05862023 64.6886586,5.22893321 64.6234378,5.22893321 C64.5582169,5.22893321 63.1367108,4.46902099 63.1105663,4.33796756 C63.0845622,4.20691412 63.1497831,3.86628817 62.9279759,3.78762786 C62.7063092,3.70896756 62.3411285,3.59104771 62.2889799,3.73523473 C62.2368313,3.87942176 62.2106867,4.20691412 62.2106867,4.20691412 C62.2106867,4.20691412 61.6238394,4.07586069 61.3951446,4.06286832 C61.1665904,4.04973473 61.2586586,3.86628817 61.3629558,3.66970802 C61.467253,3.47312786 61.2846627,3.31594847 61.2846627,3.31594847 C61.2846627,3.31594847 60.7239598,3.19802863 60.6325944,3.21116221 C60.3473936,3.25197519 60.30649,3.30281489 60.3978554,3.63044847 C60.4592811,3.85075382 60.2674137,3.89241412 60.2674137,3.89241412 C60.2674137,3.89241412 57.5836586,3.28219656 54.6854056,2.79173473 C51.8107671,2.30550954 48.7265502,1.93960496 47.4862289,1.80911641 C45.0571727,1.55350573 45.5298835,1.5731355 45.2037791,1.49461641 C45.0379157,1.45465076 42.0290402,0.552811069 38.813257,0.19735687 C35.7075341,-0.14595229 32.3951847,0.0551469466 32.0312691,0.0925706107 C30.938257,0.204841603 27.036249,0.695303435 25.8233373,0.944276718 C24.6104257,1.19325 23.7365502,1.6517958 23.6844016,1.66492939 C23.632253,1.67806298 20.9716908,1.87464313 19.7978554,1.97942939 C18.6240201,2.08421565 10.9944418,3.22415458 10.9944418,3.22415458 L10.7336988,3.2896813 C10.7336988,3.2896813 10.7206265,2.7393416 10.5380361,2.71321565 C10.3554458,2.68694847 10.0684177,2.7393416 9.88582731,2.79173473 C9.70323695,2.84426908 9.87289558,3.42073473 9.87289558,3.42073473 L9.74245382,3.47312786 C9.74245382,3.47312786 8.92072691,3.57805534 8.85550602,3.55178817 C8.7904257,3.52552099 8.64691165,3.08010878 8.64691165,3.08010878 C8.64691165,3.08010878 8.02084739,3.18489504 8.0077751,3.27668893 C7.99484337,3.3683416 7.99484337,3.76150191 7.86440161,3.81389504 C7.73395984,3.86628817 6.39060643,4.5476813 6.39060643,4.5476813 L6.03849799,4.2331813 C6.03849799,4.2331813 5.55594779,4.52141412 5.5037992,4.66560115 C5.4516506,4.80964695 5.77761446,5.07175382 5.77761446,5.07175382 C5.77761446,5.07175382 5.55651004,5.38272328 5.30813655,5.51730725 C3.97785542,6.23795992 3.59960241,11.4005897 3.5605261,11.4005897 C3.52130924,11.4005897 3.41701205,11.4137233 3.41701205,11.4137233 C3.41701205,11.4137233 2.45191165,11.3874561 2.1650241,11.5055172 C1.87799598,11.623437 1.96936145,11.79375 1.64325703,11.819876 C1.31729317,11.8461431 1.21285542,12.3702156 0.925967871,12.3572233 C0.639080321,12.3440897 0.417413655,12.448876 0.391269076,12.7241164 C0.365124498,12.9992156 8.43373494e-05,17.2307729 -5.62248996e-05,17.6509065 C-0.000899598394,22.2894637 0.534783133,23.363876 0.547714859,23.6389752 C0.55460241,23.7823149 0.691228916,25.481208 0.978116466,26.299021 C1.24251406,27.0522958 1.65436145,26.9347996 1.76062651,26.9410134 C1.98243373,26.9541469 1.98243373,27.2293874 2.17809639,27.3602996 C2.37361847,27.4913531 2.86924096,27.3602996 2.86924096,27.3602996 C2.90831727,27.5044866 3.27349799,29.4700057 3.57359839,29.8368989 C3.73299598,30.0319256 3.9500241,30.8688034 4.39518474,31.566437 C4.78721285,32.1808912 5.39289558,32.6648569 5.77761446,32.824437 C6.10526506,32.960292 6.58992369,33.3088263 7.65566667,33.5058302 C9.26327711,33.8026775 11.5552851,33.93825 11.5552851,33.93825 C11.5552851,33.93825 11.476992,34.278876 11.6074337,34.986395 C11.7378755,35.6940553 12.637755,36.1394676 13.3550442,36.1657347 C14.0723333,36.1920019 17.0851446,36.9519141 17.0851446,36.9519141 L53.0030161,36.9519141 C54.0202651,36.9519141 56.7460482,35.9036279 56.8634177,35.8119752 C56.9807871,35.7201813 57.4373333,35.5367347 57.7111486,35.4974752 C57.9851044,35.4582156 58.5328755,34.9471355 58.5458072,34.8423492 C58.5588795,34.7374218 58.7545422,34.3967958 58.7545422,34.3967958 C58.7545422,34.3967958 59.9805261,34.1740897 61.1934378,34.2002156 C61.7853454,34.2130668 62.7830562,34.0974065 63.4888193,33.8201889 C64.2291606,33.5295553 64.6664498,33.0749637 64.7800241,33.0078836 C65.0016908,32.8768302 65.1210281,32.4692653 65.9667912,31.7368912 C67.4796627,30.4264981 67.8840602,27.9631737 67.8840602,27.9631737 L68.0535783,27.9500401 C68.2230964,27.9369065 68.0274337,27.5568798 68.5230562,27.5700134 C69.0186787,27.5831469 68.7577952,27.3210401 69.0969719,27.1244599 C69.2421727,27.040292 69.5731968,26.0839408 69.7359679,24.6741279 C69.9532771,22.7920706 69.981249,20.2784714 69.9316305,19.6556851 L69.9316305,19.6556851 Z" id="Goggles-Symbol"></path>
                        </g>
                    </g>
                </g>
            </g>
        </g>
    </g>
</svg>