<?xml version="1.0" encoding="UTF-8" standalone="no"?>
<svg width="73px" height="73px" viewBox="0 0 73 73" version="1.1" xmlns="http://www.w3.org/2000/svg" xmlns:xlink="http://www.w3.org/1999/xlink">
    <!-- Generator: sketchtool 39.1 (31720) - http://www.bohemiancoding.com/sketch -->
    <title>6A2FB041-0C08-464D-BDC0-EDA690D60EFE</title>
    <desc>Created with sketchtool.</desc>
    <defs></defs>
    <g id="Light" stroke="none" stroke-width="1" fill="none" fill-rule="evenodd">
        <g id="Home-90/10-Alt" transform="translate(-483.000000, -1081.000000)" fill="#FFFFFF">
            <g id="Benefits" transform="translate(454.000000, 654.000000)">
                <g id="Explore" transform="translate(0.000000, 321.000000)">
                    <g id="Content" transform="translate(29.000000, 102.000000)">
                        <g id="Nautical-Icon" transform="translate(0.000000, 4.000000)">
                            <path d="M36.5,36.4303893 L31.5094545,39.6760816 L10.4373912,36.327708 L36.5,36.4303893 L41.6029614,33.2410514 L62.6181129,36.4303893 L36.5,36.4303893 Z M52.2362259,44.1709964 L49.018595,48.5154992 L43.9407713,40.7867245 C44.0161846,40.7616558 53.6867741,39.3020569 53.6867741,39.3020569 L52.2362259,44.1709964 Z M44.5440771,51.917219 C42.2062672,53.0202409 39.5668044,53.5260266 39.5668044,53.5260266 L41.0247934,43.7400157 L48.6163912,48.9089772 C48.6163912,48.9089772 46.8818871,50.814197 44.5440771,51.917219 L44.5440771,51.917219 Z M36.5,62.6215459 C36.5,62.6215459 36.600551,36.5501173 36.5,36.5501173 C36.5,36.5501173 39.6422176,41.4134415 39.7176309,41.4134415 C39.7930441,41.4134415 36.5,62.6215459 36.5,62.6215459 L36.5,62.6215459 Z M28.5699477,51.9555239 C26.560135,51.0432245 24.4455482,48.8893234 24.4455482,48.8893234 L32.1095427,43.7741091 L33.6692893,53.5260266 C33.6692893,53.5260266 30.5795592,52.8678234 28.5699477,51.9555239 L28.5699477,51.9555239 Z M20.9210358,44.1629745 C19.8111543,42.0092739 19.3912534,39.3020569 19.3912534,39.3020569 L29.2148815,40.8127959 L23.9954821,48.5154992 C23.9954821,48.5154992 22.0307163,46.3168755 20.9210358,44.1629745 L20.9210358,44.1629745 Z M21.175832,28.129447 C22.5107466,25.7812135 24.0405289,24.3751613 24.0405289,24.3751613 L29.1698347,32.0181008 L19.3610882,33.5587217 C19.3610882,33.5587217 19.8411185,30.4776805 21.175832,28.129447 L21.175832,28.129447 Z M28.3593939,21.1037986 C30.857281,19.6506173 33.5635096,19.2585431 33.5635096,19.2585431 L32.1525785,29.0848646 L32.1294518,29.1771173 L24.4041212,23.8717821 C24.4041212,23.8717821 25.8613058,22.5569799 28.3593939,21.1037986 L28.3593939,21.1037986 Z M36.5,10.4931283 L36.5,36.327708 L33.3091157,31.4836365 L36.5,10.4931283 Z M44.411551,20.8270404 C46.8199477,22.0497904 48.7533416,23.9179085 48.7456997,23.9179085 C48.7316226,23.9179085 40.8496336,29.0848646 40.8496336,29.0848646 L39.5774628,19.2585431 C39.5774628,19.2585431 42.2444766,19.7266255 44.411551,20.8270404 L44.411551,20.8270404 Z M49.2689669,24.3051695 C49.4039063,24.4174772 51.015135,26.3535816 52.1139559,28.5542107 C53.2725041,30.8745679 53.6867741,33.4674717 53.6867741,33.4674717 L44.0183967,32.1526695 L43.8048264,32.110153 C43.8048264,32.110153 48.9912452,24.0745376 49.2689669,24.3051695 L49.2689669,24.3051695 Z M55.7052342,33.8928371 C55.7052342,33.8928371 54.7121928,27.3336668 50.7782369,23.4105184 C49.1826942,21.8193591 47.0069725,20.0432931 44.946281,19.0772464 C41.9261322,17.6615679 39.1897383,17.4227135 39.1897383,17.4227135 L36.5,-2.00549457e-05 L33.8353994,17.3725761 C33.8353994,17.3725761 27.2241736,18.3753234 22.7747934,22.8124799 C18.3254132,27.2496365 17.47073,33.8928371 17.47073,33.8928371 L0,36.4374085 L17.4455923,39.0820541 C17.4455923,39.0820541 17.8980716,44.8979882 23.0010331,50.1122739 C28.1039945,55.3265596 33.9359504,55.451903 33.9359504,55.451903 L36.5,72.8746365 L39.214876,55.5020404 C39.214876,55.5020404 45.046832,55.1761475 50.1246556,50.1624113 C55.2024793,45.148675 55.6549587,39.0569854 55.6549587,39.0569854 L72.9497245,36.4303893 L55.7052342,33.8928371 Z" id="Nautical-Symbol"></path>
                        </g>
                    </g>
                </g>
            </g>
        </g>
    </g>
</svg>