<svg xmlns="http://www.w3.org/2000/svg" viewBox="0 0 100 100"><path fill="none" d="M45.132 55.904c1.363 1.365 1.999.809 4.838-2.037 6.665-4.336 13.297-12.252 14.924-15.948.51-1.161.627-1.63.228-2.049-.418-.401-.886-.284-2.044.228-3.688 1.629-11.587 8.277-15.913 14.957-2.84 2.845-3.396 3.483-2.033 4.849zm2.032-4.849l2.806 2.812"/><path fill="none" d="M44.358 54.57c-.873-.196-2.689-.117-3.976 1.055-1.164 1.061-1.46 2.327-1.637 3.047-.479 1.948-.941 1.287-1.988.586-.702 3.561 2.568 4.952 3.711 5.102 4.92.642 6.812-4.866 6.111-7.562"/><path fill="#1C75BC" d="M46.112 56.35l-.036.199c-.025.135-.06.325-.115.541a10.434 10.434 0 0 1-.499 1.557c-.114.273-.262.537-.381.781l-.431.621-.526.499.373-.598.244-.667c.05-.26.121-.522.158-.794a9.765 9.765 0 0 0 .081-1.507c0-.207-.015-.371-.022-.484l-.015-.189 1.169.041z"/></svg>