<svg xmlns="http://www.w3.org/2000/svg" viewBox="0 0 100 100"><path fill="none" d="M66.014 53.412l4.127-.444v-5.936l-4.127-.445a15.352 15.352 0 0 0-2.004-4.836l2.604-3.235-4.196-4.196-3.235 2.604a15.352 15.352 0 0 0-4.836-2.004l-.447-4.128h-5.935l-.445 4.128a15.365 15.365 0 0 0-4.836 2.004L39.45 34.32l-4.197 4.196 2.604 3.235a15.352 15.352 0 0 0-2.004 4.836l-4.127.445v5.936l4.127.444a15.394 15.394 0 0 0 2.004 4.837l-2.604 3.235 4.197 4.195 3.234-2.603a15.408 15.408 0 0 0 4.836 2.004l.446 4.127H53.9l.446-4.127a15.422 15.422 0 0 0 4.836-2.004l3.235 2.603 4.196-4.195-2.604-3.235a15.35 15.35 0 0 0 2.005-4.837zM50.932 51.25a1.25 1.25 0 1 1 0-2.5 1.25 1.25 0 0 1 0 2.5z"/></svg>