<svg xmlns="http://www.w3.org/2000/svg" viewBox="0 0 100 100"><g fill="none"><ellipse cx="47.497" cy="50" rx="6.028" ry="14.051"/><ellipse cx="44.214" cy="50" rx="2.354" ry="5.484"/><path d="M35.86 47.135h-2.902c-.683 0-1.236 1.283-1.236 2.865 0 1.583.553 2.866 1.236 2.866h2.902m31.897-19.344c.736 2.108 1.333 4.62 1.744 7.407.411 2.789.64 5.854.64 9.07 0 3.219-.229 6.282-.64 9.071-.411 2.788-1.008 5.298-1.744 7.406m-5.3-28.717c.548 1.566.99 3.432 1.297 5.502.306 2.071.475 4.348.475 6.738s-.169 4.667-.475 6.739c-.305 2.069-.749 3.936-1.297 5.502m-4.938-20.244c.357 1.025.647 2.244.847 3.598A30.23 30.23 0 0 1 58.678 50c0 1.563-.11 3.052-.312 4.407-.199 1.354-.489 2.574-.847 3.598m-13.84 2.719c-2.504-1.918-5.431-3.846-6.646-6.083-.737-1.299-1.173-2.583-1.173-4.639s.436-3.342 1.173-4.64c1.215-2.239 4.142-4.165 6.646-6.084"/></g></svg>