<svg xmlns="http://www.w3.org/2000/svg" viewBox="0 0 100 100"><g fill="none"><path d="M60.036 46.133c-.675 4.381-4.454 7.734-9.013 7.734m-2.445-9.258c.146.522.223 1.072.223 1.641 0 3.366-2.722 6.094-6.081 6.094"/><path d="M60.493 41.326c-.331 0-.653.033-.966.096-1.321-3.415-4.631-5.835-8.504-5.835a9.114 9.114 0 0 0-7.908 4.583 6.427 6.427 0 0 0-.394-.013c-3.358 0-6.08 2.728-6.08 6.094s2.722 6.094 6.08 6.094a6.05 6.05 0 0 0 2.521-.547 9.07 9.07 0 0 0 5.781 2.071 9.09 9.09 0 0 0 7.045-3.337 4.892 4.892 0 0 0 2.425.642 4.917 4.917 0 0 0 4.911-4.923 4.917 4.917 0 0 0-4.911-4.925z"/><path d="M48.684 53.281l-1.286 5.742h3.508l-1.404 3.868 7.018-6.329h-4.445l.937-2.812"/></g></svg>