<?xml version="1.0" encoding="UTF-8" standalone="no"?>
<svg width="70px" height="70px" viewBox="0 0 70 70" version="1.1" xmlns="http://www.w3.org/2000/svg" xmlns:xlink="http://www.w3.org/1999/xlink">
    <!-- Generator: sketchtool 39.1 (31720) - http://www.bohemiancoding.com/sketch -->
    <title>422C3D72-4407-417B-9557-F77E1C6A7F1D</title>
    <desc>Created with sketchtool.</desc>
    <defs></defs>
    <g id="Light" stroke="none" stroke-width="1" fill="none" fill-rule="evenodd">
        <g id="Home-90/10-Alt" transform="translate(-484.000000, -848.000000)">
            <g id="Benefits" transform="translate(454.000000, 654.000000)">
                <g id="Boaters-Hover" transform="translate(1.000000, 82.000000)">
                    <g id="Content" transform="translate(29.000000, 107.000000)">
                        <g id="Raft-Icon" transform="translate(0.000000, 5.000000)">
                            <path d="M55.5263431,52.9204948 C55.4994528,52.9179338 55.4721357,52.9179338 55.4452455,52.914946 C55.3428065,53.0570801 55.4354284,53.0242143 55.5263431,52.9204948" id="Fill-1" fill="#FEFEFE"></path>
                            <path d="M68.05225,39.005932 C68.03881,39.842572 67.87739,40.677252 67.57219,41.459432 C67.26853,42.237552 66.82221,42.979832 66.72575,43.807232 C66.70657,43.970752 66.69901,44.143792 66.60913,44.283092 C66.48201,44.479932 66.23085,44.553012 66.02435,44.669072 C64.99563,45.246712 65.12009,46.835152 64.22255,47.593112 C63.96831,47.807732 63.64365,47.942552 63.42623,48.192732 C63.20867,48.442912 63.16261,48.890212 63.45353,49.054572 C62.72665,49.640752 61.86425,50.065792 60.94963,50.288812 C61.05533,50.575952 60.92093,50.846152 60.70197,51.079392 C60.61069,50.962492 60.53873,50.838452 60.48805,50.709792 C61.05813,49.660212 62.06179,48.868512 62.57181,47.788272 C62.92895,47.031992 63.01869,46.186672 63.15057,45.363892 C63.31969,44.308992 63.57239,43.248912 64.10971,42.318892 C64.38691,41.839112 64.79585,41.351492 64.62897,40.825092 C64.79039,40.497072 64.80201,40.121312 64.85395,39.760952 C64.89847,39.451692 64.97463,39.147612 65.03665,38.841292 C65.16825,38.190152 65.23545,37.528512 65.30265,36.868132 C65.40863,35.826392 65.51447,34.776112 65.40359,33.734932 C65.34521,33.186972 65.22705,32.643632 65.22257,32.092872 C65.21571,31.260572 65.46533,30.399712 65.18617,29.613192 C65.07319,29.294972 64.87789,29.007552 64.78213,28.683872 C64.64003,28.204232 64.72669,27.681612 64.58403,27.202112 C64.53811,27.047832 64.46741,26.892292 64.43045,26.732552 C64.69015,26.789112 64.89161,27.027112 64.99031,27.276872 C65.10175,27.558552 65.12387,27.866972 65.22565,28.152152 C65.30839,28.384132 65.44377,28.601412 65.47471,28.845152 C65.50551,29.088752 65.38189,29.380092 65.13451,29.424472 C65.62311,29.600732 66.00853,30.027032 66.12725,30.522072 C66.25591,31.059532 66.15819,31.767372 66.65827,32.024692 C66.79729,32.096232 66.95983,32.113172 67.10067,32.181212 C67.24137,32.249252 67.36359,32.404512 67.30801,32.548012 C67.27735,32.627532 67.20119,32.680032 67.14449,32.744572 C66.82445,33.109692 67.19531,33.638332 67.33545,34.099072 C67.53705,34.762672 67.23395,35.567952 67.66207,36.119692 C67.74299,36.223992 67.85051,36.319892 67.87207,36.449112 C67.90217,36.629012 67.75587,36.785952 67.68867,36.956052 C67.53243,37.351552 67.86241,37.507512 67.97133,37.819012 C68.09229,38.164532 68.05799,38.644872 68.05225,39.005932 L68.05225,39.005932 Z M61.38475,53.253452 L61.16047,53.351452 L61.22767,53.586932 C61.41723,54.250392 61.19127,55.005832 60.66529,55.466712 C60.32523,55.764772 59.88773,55.938512 59.42475,56.122472 C58.98627,56.296632 58.53281,56.476812 58.14263,56.776272 C57.83155,57.015112 57.57801,57.315412 57.33287,57.605772 C56.96299,58.043972 56.61369,58.457952 56.12201,58.591932 C56.07119,58.605792 56.01939,58.614892 55.96731,58.621192 C55.96773,58.616292 55.96983,58.612372 55.96997,58.607192 C55.97347,58.478112 55.87799,58.366252 55.77313,58.287292 C55.48809,58.072532 55.14033,58.021992 54.78697,58.073232 C54.78039,58.062732 54.77325,58.052652 54.76709,58.041872 L54.71445,57.949612 L54.61379,57.915452 C54.21577,57.780212 53.78107,57.608712 53.65829,57.283912 C53.64205,57.240792 53.63099,57.196132 53.61937,57.151612 C53.59949,57.075452 53.57709,56.989212 53.53705,56.901712 C53.31095,56.408072 52.79169,56.302372 52.33361,56.208992 C52.10933,56.163352 51.89765,56.120372 51.72699,56.039592 C51.60547,55.981912 51.48619,55.892732 51.37083,55.806352 C51.09181,55.597892 50.80313,55.382292 50.52187,55.161652 C49.52283,54.377652 48.57769,53.497612 47.66391,52.646552 L45.03135,50.195572 L45.07601,50.032052 C44.96485,50.001672 44.85481,49.967512 44.74603,49.929992 L44.01971,49.253652 L46.19769,47.703852 C46.40573,47.556012 46.64177,47.388292 46.83133,47.169752 C46.94529,47.038572 47.03475,46.898852 47.12155,46.763752 L47.17713,46.677232 C47.64263,45.962392 48.26157,45.323432 48.96661,44.829652 L49.02163,44.791292 C49.19747,44.669492 49.39669,44.531172 49.54033,44.328032 C49.79317,43.970612 49.79681,43.534932 49.78183,43.189972 C49.85421,43.115912 49.95361,43.067472 50.07849,43.045912 C50.34379,42.999712 50.68231,43.087632 50.91975,43.264732 C51.16335,43.446452 51.35865,43.689352 51.56543,43.946532 C51.72657,44.146732 51.89317,44.353932 52.09029,44.539432 C52.31289,44.748732 52.56237,44.919252 52.80359,45.084172 C53.09549,45.283532 53.37115,45.471972 53.58409,45.714312 C53.67313,45.815812 53.75293,45.928652 53.83707,46.047932 C53.90021,46.137252 53.96335,46.226572 54.03083,46.312392 C54.53735,46.956392 55.24687,47.374292 55.93287,47.778472 C56.01393,47.826072 56.09485,47.873812 56.17521,47.921692 C57.49807,48.710452 58.74547,49.631232 59.88409,50.659392 C59.94849,50.936312 60.08457,51.199932 60.27357,51.437932 C60.23227,51.466492 60.19097,51.494352 60.15023,51.520532 C59.69985,51.810612 59.20579,52.326512 59.47025,52.785712 C59.49699,52.832332 59.46969,52.884832 59.44169,52.916752 C60.05363,52.975692 60.67369,52.953432 61.27919,52.848852 C61.45153,52.819172 61.62961,52.779832 61.76695,52.673852 C61.85039,52.609592 61.91157,52.525172 61.96421,52.434592 C62.15517,52.481492 62.34669,52.517192 62.53457,52.544772 C62.18765,52.832052 61.79775,53.073132 61.38475,53.253452 L61.38475,53.253452 Z M52.24625,60.135432 C52.07909,60.456032 51.95351,60.801552 51.72965,61.087432 C51.56389,61.298972 51.35039,61.469632 51.13885,61.638052 C50.61651,62.054272 50.09403,62.470632 49.57155,62.886992 C48.74821,63.543032 47.86747,64.224412 46.81467,64.367632 C46.54293,64.404592 46.18831,64.470112 46.15387,64.736112 C46.13973,64.846432 46.19363,64.958292 46.17333,65.067772 C46.15317,65.175992 46.06553,65.258312 45.98083,65.330832 C45.33417,65.884812 44.59399,66.324832 43.83729,66.724392 C43.39083,66.960012 42.93681,67.182892 42.46725,67.370632 C41.44483,67.779292 40.35507,68.018132 39.25537,68.120892 C38.07279,68.231492 36.87495,68.185712 35.70483,67.985372 C34.83655,67.836692 33.98591,67.604012 33.13723,67.371472 C32.95145,67.320652 32.76343,67.268852 32.59683,67.173932 C32.44311,67.086292 32.31039,66.963232 32.14701,66.894212 C31.76929,66.734332 31.31555,66.893932 30.92915,66.755472 C30.72307,66.681692 30.55801,66.530772 30.37979,66.405892 C30.05737,66.179652 29.68413,66.034752 29.31509,65.891812 C27.77439,65.295692 26.23383,64.699572 24.69313,64.103452 L24.66065,62.962032 C24.02323,63.198492 23.32771,62.857312 22.73593,62.526212 L21.31619,61.731992 C21.08659,61.603752 20.83949,61.504772 20.58637,61.441772 C20.66001,61.408592 20.73225,61.372892 20.80449,61.337192 C21.86009,61.809692 22.93837,62.232912 24.02631,62.629392 C25.28995,63.089992 26.56829,63.516152 27.87183,63.856632 C28.51219,64.023792 29.16403,64.189272 29.81937,64.291192 C30.04057,64.325492 30.21361,64.297632 30.42991,64.266132 C30.71691,64.224412 31.00867,64.263472 31.29693,64.277332 C34.34683,64.423072 37.41661,64.168412 40.39707,63.519792 C41.29685,63.323932 42.18893,63.092512 43.09515,62.926612 C43.82483,62.793052 44.56823,62.700932 45.26585,62.452992 C46.25285,62.102152 47.10867,61.453392 48.10309,61.123552 C48.59099,60.961852 49.11039,60.877432 49.56301,60.637192 C49.97069,60.420892 50.30025,60.093992 50.69365,59.856692 C51.05135,59.640952 51.42697,59.568852 51.73063,59.265472 C51.93167,59.064572 52.13271,58.863672 52.33375,58.662632 C52.64819,58.348472 53.00785,58.098992 53.38347,57.869392 C53.57779,58.072672 53.83105,58.210292 54.06261,58.308012 C53.90441,58.386412 53.75321,58.477832 53.61629,58.577372 C53.04901,58.989952 52.56727,59.520132 52.24625,60.135432 L52.24625,60.135432 Z M17.64287,61.197332 C17.44057,61.098772 17.23169,61.029052 17.02967,60.961712 C16.87007,60.908372 16.71915,60.857972 16.57509,60.795392 C15.80397,60.460232 15.26525,59.799572 14.69489,59.100272 C14.22547,58.524592 13.74009,57.929312 13.10155,57.504272 C12.81133,57.311212 12.50109,57.160712 12.18777,57.027152 C12.40407,56.870352 12.60861,56.672672 12.73195,56.410452 C12.76359,56.343252 12.78389,56.274092 12.80167,56.213052 C12.80951,56.186172 12.82043,56.149912 12.83135,56.119812 C12.88133,56.102592 12.93243,56.089152 12.98507,56.081172 C13.02259,56.031612 13.03407,55.975472 13.02987,55.918212 C13.18457,55.809852 13.38435,55.713392 13.58063,55.619312 C13.75661,55.535172 13.93861,55.448092 14.09009,55.349672 L14.09009,55.349532 C14.29701,55.214992 14.52143,55.041252 14.61789,54.773012 C14.65541,54.668432 14.66675,54.568472 14.67669,54.480272 C14.68271,54.425952 14.68859,54.374712 14.69951,54.334252 C14.72905,54.225752 14.81669,54.115572 14.91147,54.003012 C15.67993,53.090212 16.58335,52.299632 17.60143,51.650032 C17.78343,51.533972 18.01009,51.389492 18.12125,51.137352 C18.18187,51.000152 18.19321,50.865752 18.20315,50.747312 C18.20623,50.710632 18.20917,50.674092 18.21421,50.637972 C18.27483,50.198652 18.64695,49.862932 19.04091,49.507752 C19.29977,49.274372 19.56745,49.033292 19.77199,48.742232 C19.88595,48.580252 19.97527,48.409312 20.06165,48.243832 C20.18065,48.015772 20.29321,47.800452 20.45491,47.637912 C20.52043,47.572112 20.59827,47.510932 20.68073,47.446112 C20.79749,47.354132 20.91831,47.259212 21.02541,47.135732 C21.19901,46.935812 21.29673,46.708732 21.39109,46.489352 C21.46361,46.320932 21.53207,46.161892 21.62853,46.033372 C21.84497,45.744832 22.13463,45.866212 22.24901,45.931312 C22.31985,45.971912 22.39643,46.011812 22.47511,46.052692 C22.76575,46.204032 23.06633,46.360412 23.16237,46.606952 C23.17917,46.650072 23.19065,46.695012 23.20269,46.739952 C23.23097,46.845092 23.26289,46.964092 23.33723,47.080152 C23.44811,47.253472 23.60883,47.352592 23.75065,47.439952 L23.81589,47.480552 C24.08833,47.654152 24.32129,47.888512 24.56783,48.136452 C24.88017,48.450472 25.20315,48.775412 25.62637,48.987652 C25.77785,49.063812 25.93311,49.120652 26.08347,49.175532 C26.28507,49.249312 26.47547,49.319172 26.63185,49.425852 C26.72019,49.486332 26.80391,49.562912 26.89253,49.643832 C26.97219,49.716632 27.05451,49.791812 27.14733,49.861952 C27.56467,50.177232 28.14665,50.428952 28.57169,50.612912 C28.65807,50.650152 28.74431,50.680112 28.82033,50.706712 C29.14695,50.820112 29.18727,50.847972 29.16459,51.073932 C29.12609,51.460892 28.79541,51.770712 28.44527,52.098732 C28.06965,52.450692 27.68115,52.814552 27.55879,53.340112 C27.53639,53.436292 27.52547,53.528412 27.51497,53.617592 C27.50321,53.717832 27.49215,53.812752 27.46555,53.892412 C27.38449,54.135172 27.13963,54.316472 26.88035,54.508412 C26.75827,54.598712 26.63213,54.692232 26.51551,54.797372 C26.16999,55.109012 25.94221,55.498212 25.72199,55.874672 C25.64793,56.001232 25.57387,56.127792 25.49533,56.250712 C25.10389,56.864192 24.57917,57.409492 24.07195,57.936592 C22.87425,59.181052 21.51695,60.591692 19.76065,61.163032 L19.73013,61.172832 C19.56703,61.225612 19.36403,61.291412 19.20737,61.446952 C19.16691,61.487132 19.13457,61.529832 19.10531,61.572952 C18.93157,61.661152 18.76539,61.778052 18.61209,61.930372 C18.57947,61.962712 18.55287,61.993372 18.52907,62.023192 C18.50653,62.019972 18.48413,62.017592 18.46145,62.013392 C18.33559,61.684812 18.04649,61.394032 17.64287,61.197332 L17.64287,61.197332 Z M7.78323,48.171312 C6.37959,47.736472 5.65103,46.266472 5.07885,44.941652 C4.67187,43.999172 3.91993,42.857192 3.75795,41.848632 C3.65659,41.217512 4.39243,40.477052 3.31541,40.401732 C3.40165,40.162332 3.50931,39.899972 3.47963,39.638312 C3.44911,39.370072 3.22497,39.102392 2.94917,39.120032 C2.84613,39.043172 3.01931,38.924312 3.12277,38.847732 C3.33417,38.691212 3.24905,38.358712 3.09407,38.148432 C2.93909,37.938152 2.72433,37.735572 2.72657,37.476572 C2.72909,37.164652 3.04367,36.946112 3.15791,36.654772 C3.27621,36.353212 3.14125,35.977452 2.85607,35.813932 C2.64663,35.693812 2.32449,35.606032 2.34899,35.370132 C2.35949,35.269192 2.43915,35.190792 2.50229,35.110292 C3.05123,34.410712 2.44825,33.376532 2.69507,32.528972 C2.82975,32.066412 3.20929,31.559052 2.92453,31.166772 C2.85005,31.064152 2.73525,30.986732 2.69199,30.868152 C2.61639,30.660812 2.79643,30.447312 2.98865,30.331952 C3.18073,30.216592 3.41005,30.134412 3.53031,29.948212 C3.72981,29.639512 3.41747,29.163232 3.04689,29.210692 C3.32535,29.044512 3.60395,28.878472 3.88241,28.712292 C4.04817,28.613452 4.22023,28.508312 4.31963,28.345492 C4.41903,28.182672 4.41763,27.944112 4.26349,27.828752 C4.20917,27.788012 4.13819,27.763232 4.10389,27.705272 C3.98545,27.506472 4.37577,27.426532 4.55399,27.276032 C4.74033,27.118532 4.67831,26.820892 4.78345,26.603332 C4.92989,26.300372 5.33239,26.242132 5.66153,26.147352 C5.99053,26.052572 6.34977,25.738692 6.19269,25.440912 C6.10883,25.281732 5.88791,25.154892 5.94811,24.985912 C5.97205,24.918992 6.03589,24.874892 6.09609,24.835412 C6.38799,24.643892 6.67989,24.452372 6.97179,24.260852 C7.01827,24.044412 6.86175,23.833012 6.86385,23.611952 C6.86833,23.147292 7.48783,22.974532 7.80801,22.629012 C7.54565,23.333632 7.28693,24.035312 6.99601,24.762332 C6.89157,25.023292 6.78727,25.284252 6.68535,25.546192 C6.58525,25.803232 6.48767,26.061252 6.39975,26.322492 C6.22125,26.851972 6.08279,27.393492 5.94461,27.934312 C5.86635,28.240352 5.78809,28.546392 5.70983,28.852432 C5.43627,29.922452 5.16215,30.995132 5.01207,32.088252 C4.72227,34.199032 4.90007,36.341172 5.07815,38.463712 C5.14563,39.266472 5.21339,40.071752 5.38377,40.859812 C5.56213,41.684552 5.85109,42.481992 6.13921,43.276632 C6.82969,45.181052 7.52017,47.085472 8.21065,48.989892 C8.39937,49.510412 8.63807,49.971992 8.89847,50.458212 C9.00095,50.649592 9.11267,50.824732 9.22677,50.994972 C8.09529,50.556912 7.23667,49.230132 7.78323,48.171312 L7.78323,48.171312 Z M6.83641,18.286912 C6.84985,18.276832 6.87729,18.260032 6.92811,18.242112 C7.45185,18.055912 7.77413,17.582292 8.00947,17.236352 C8.11573,17.080392 8.22269,16.924852 8.32979,16.769172 C8.58473,16.398312 8.84863,16.014852 9.09797,15.629292 C10.22301,13.890912 11.71695,12.331172 13.41851,11.118912 C13.60989,10.982552 13.81093,10.847312 14.02051,10.771012 C14.04963,10.910172 14.08113,11.052972 14.11599,11.197592 C14.11501,11.199272 14.11417,11.200672 14.11305,11.202352 C13.96129,11.450572 13.94799,11.774112 14.07875,12.033392 C14.18039,12.234992 14.35609,12.381012 14.56427,12.472992 C14.70763,12.753132 14.88473,13.018992 15.11083,13.254612 C15.71423,13.884052 16.53799,14.185892 17.33473,14.477932 C17.47837,14.530712 17.62173,14.583212 17.76299,14.637392 C18.87921,15.065932 19.52797,15.590792 19.74651,16.241652 C19.76247,16.288972 19.77619,16.337272 19.79005,16.385572 C19.82379,16.503452 19.86215,16.637012 19.92991,16.765812 C20.06599,17.023832 20.28411,17.202332 20.49593,17.363192 C20.86231,17.641232 21.24843,17.903592 21.62181,18.157272 C22.45915,18.726232 23.25001,19.263412 23.87679,19.984832 C23.98739,20.112232 24.09715,20.250412 24.20299,20.383972 C24.52877,20.794452 24.86547,21.218792 25.34749,21.500192 C25.41511,21.539672 25.48707,21.578452 25.56001,21.617512 C25.88971,21.794472 26.12351,21.933912 26.13037,22.118432 C26.13737,22.309952 25.87977,22.496852 25.65465,22.638112 L24.07643,23.629172 C23.88071,23.752092 23.63711,23.905112 23.48353,24.152352 C23.42053,24.253572 23.38021,24.358992 23.34465,24.452092 C23.30811,24.547292 23.27675,24.629472 23.23111,24.687432 C23.13759,24.806012 22.94621,24.877832 22.74363,24.953852 C22.43227,25.070612 22.04475,25.215932 21.93135,25.626412 C21.88319,25.800572 21.90671,25.961292 21.92757,26.102972 C21.94115,26.195932 21.95403,26.283712 21.93947,26.344892 C21.92211,26.418252 21.85141,26.506872 21.78883,26.585132 C21.46277,26.994212 21.16037,27.341832 20.76053,27.454252 L20.58203,27.504512 L20.55865,27.688332 C20.48585,28.258272 20.34683,28.552552 20.10813,28.642292 C19.80811,28.754432 19.42451,28.494172 19.12407,28.254212 L11.74579,22.363852 C10.96501,21.740572 10.15777,21.096152 9.47079,20.365492 C9.44727,20.340432 9.43201,20.322512 9.42207,20.309772 C9.44055,20.290172 9.46771,20.265532 9.48801,20.247192 C9.53239,20.206732 9.58279,20.160952 9.62801,20.104812 C9.78831,19.905872 9.82555,19.658492 9.73287,19.408032 C9.60323,19.058032 9.22243,18.750732 8.82735,18.677652 L8.82735,18.677512 C8.58711,18.633132 8.32153,18.630752 8.06449,18.628372 C7.70175,18.625152 7.32655,18.621792 7.06853,18.498312 C6.94701,18.440212 6.85727,18.337452 6.83641,18.286912 L6.83641,18.286912 Z M15.40693,12.566792 C15.62393,12.527312 15.82777,12.448632 16.02349,12.350072 C15.82371,12.482652 15.57493,12.563432 15.33007,12.647292 C15.31425,12.626012 15.29815,12.604872 15.28275,12.583172 C15.32461,12.579252 15.36605,12.574212 15.40693,12.566792 L15.40693,12.566792 Z M17.19837,11.158812 C18.15779,10.408832 19.13765,9.684332 20.11737,8.959832 C20.87953,8.396332 21.64169,7.832832 22.40385,7.269332 C22.74377,7.154252 23.08383,7.039172 23.42375,6.924232 C23.61499,6.671252 23.97353,5.946472 24.25857,5.820612 C24.44015,5.740392 24.80135,5.838112 25.05713,5.816692 C25.71289,5.761672 26.50963,5.570572 26.98843,5.096392 C27.15349,4.932872 27.23595,4.599532 27.41557,4.472972 C27.65959,4.300772 28.12817,4.357752 28.44807,4.280192 C29.80257,3.952312 30.88211,2.959852 32.25397,2.672012 C33.00451,2.514512 33.78221,2.586892 34.54983,2.577932 C35.52437,2.566592 36.49779,2.422952 37.47037,2.484832 C38.31485,2.538452 39.14127,2.746492 39.94935,2.991772 C42.41433,3.740352 44.76423,4.848732 46.89699,6.268752 C47.03853,6.362972 47.18245,6.461812 47.27835,6.600412 C47.36067,6.719412 47.40295,6.861372 47.48639,6.979532 C47.64067,7.198492 47.90933,7.305032 48.15685,7.415772 C49.14791,7.859152 50.01871,8.551312 50.67153,9.403492 C50.24789,9.152752 49.82663,8.898092 49.40355,8.646512 C48.30833,7.995372 47.18819,7.364252 45.97229,6.966232 C44.97871,6.641152 43.93851,6.477212 42.90181,6.327272 C40.52279,5.983292 38.13355,5.705532 35.73815,5.494552 C35.04375,5.433372 34.32485,5.297292 33.63535,5.375552 C32.87487,5.461792 32.11775,5.575052 31.36497,5.711272 C29.86025,5.983572 28.37359,6.347432 26.90821,6.777512 C25.66711,7.141792 24.43847,7.550172 23.24371,8.040172 C20.92251,8.991892 18.73529,10.253152 16.75877,11.775372 C16.76843,11.532892 16.99243,11.319672 17.19837,11.158812 L17.19837,11.158812 Z M53.93857,8.112272 C54.36137,8.094072 54.78319,8.387792 54.90023,8.781752 C54.91269,8.823892 54.92263,8.867012 54.93271,8.910272 C54.96547,9.051952 55.00271,9.212532 55.11023,9.360652 C55.23021,9.525572 55.39765,9.618812 55.53219,9.693572 L56.70833,10.348772 C56.89817,10.454332 57.06015,10.552192 57.12119,10.681272 C57.13589,10.711932 57.14849,10.753092 57.16179,10.796492 C57.18643,10.876852 57.21429,10.967712 57.27071,11.059412 C57.35205,11.191432 57.46517,11.279212 57.55617,11.349772 C58.50887,12.088132 59.49083,12.813752 60.48105,13.511232 C60.06693,13.705272 59.70517,14.010332 59.45345,14.383152 C59.29931,14.426832 59.15343,14.512372 59.02939,14.651532 C58.91501,14.780052 58.82835,14.933912 58.76241,15.098972 C58.43705,15.428952 58.42697,15.874012 58.41899,16.267552 C58.41619,16.402652 58.41367,16.530192 58.39925,16.648352 C58.36481,16.932692 58.24413,17.220112 58.12751,17.497872 C57.90799,18.020492 57.65921,18.612832 57.22745,19.008192 C57.09165,19.132512 56.93625,19.240032 56.77161,19.353852 C56.63973,19.444992 56.50323,19.539352 56.37317,19.645892 C55.95121,19.991132 55.63999,20.425552 55.33899,20.845692 C55.20739,21.029372 55.07145,21.219352 54.93047,21.394632 C54.37831,22.081472 53.66305,22.650292 52.86211,23.039632 L52.83663,23.051952 C52.57483,23.179072 52.24919,23.336992 52.11269,23.672852 C52.06187,23.798292 52.05011,23.920372 52.03961,24.028172 C52.03205,24.107132 52.02477,24.181612 52.00307,24.231032 C51.97479,24.295432 51.90325,24.362352 51.82625,24.430952 C51.17791,25.008172 50.45173,25.496072 49.66773,25.881072 C49.43183,25.996852 49.15225,26.065732 49.05999,25.958492 C49.02373,25.916492 49.00245,25.831792 48.97977,25.742192 L48.97305,25.715872 C48.84271,25.204872 48.62739,24.721732 48.33353,24.279892 C47.46637,22.977472 46.05615,22.227772 44.69241,21.502852 C44.11155,21.194012 43.51095,20.874672 42.96789,20.519492 C42.95011,20.507872 42.92323,20.490232 42.89285,20.468672 C43.67377,20.308932 44.40975,20.109992 44.89443,19.540472 C45.04017,19.369112 45.14573,19.182072 45.24793,19.001052 C45.33109,18.853912 45.40935,18.714752 45.50427,18.593372 C45.74241,18.288172 46.10081,18.066692 46.48021,17.832332 C47.03041,17.492412 47.59965,17.140732 47.82281,16.493512 C47.88385,16.317112 47.90863,16.142532 47.93257,15.973692 C47.94643,15.875692 47.95959,15.783012 47.97919,15.694532 C48.16861,14.840112 49.00189,14.217812 49.70665,13.771072 L49.72555,13.759172 C50.11433,13.512772 50.55519,13.233752 50.74587,12.756492 C50.82007,12.570852 50.84331,12.387032 50.86585,12.209092 C50.87271,12.154632 50.87943,12.100172 50.88811,12.046272 C51.01257,11.261292 51.54303,10.552332 52.27229,10.196312 L52.33165,10.167892 C52.42685,10.122672 52.53059,10.072132 52.62747,10.000032 C52.70671,9.961952 52.77685,9.911132 52.81591,9.835112 C52.82655,9.814392 52.83425,9.793112 52.83985,9.771412 C52.97089,9.563092 52.99385,9.326352 53.01289,9.112852 C53.02073,9.022832 53.02843,8.937992 53.04355,8.861972 C53.12363,8.460032 53.51661,8.130752 53.93857,8.112272 L53.93857,8.112272 Z M62.4852354,21.652891 C62.4773817,21.632574 62.4685037,21.6127691 62.46065,21.592452 C62.4814793,21.597574 62.5024793,21.6028666 62.5227963,21.6074764 C62.5089671,21.6218179 62.4978695,21.6378666 62.4852354,21.652891 L62.4852354,21.652891 Z M63.50687,23.266572 C63.55153,23.357292 63.54565,23.463272 63.53193,23.563092 C63.52577,23.607612 63.51807,23.651992 63.50911,23.696232 C63.48489,23.656052 63.46039,23.616012 63.43617,23.576112 C63.32795,23.398312 63.22533,23.217432 63.12621,23.034592 C63.28735,23.074632 63.43813,23.126852 63.50687,23.266572 L63.50687,23.266572 Z M42.8173866,20.4119481 C42.8098744,20.4058018 42.8023622,20.399314 42.79485,20.3926554 L42.8124354,20.387192 L42.8173866,20.4119481 Z M12.67203,55.486172 C12.52699,55.403292 12.37663,55.325032 12.29585,55.184752 C12.26043,55.123432 12.24265,55.056092 12.23131,54.986512 C12.38839,55.144572 12.54001,55.307812 12.68435,55.477072 C12.68015,55.480152 12.67609,55.483232 12.67203,55.486172 L12.67203,55.486172 Z M7.99743,22.123052 C7.98917,21.804552 7.84385,21.464212 8.01031,21.193592 C8.20351,20.879572 8.73761,20.807052 8.90155,20.527192 C8.90603,20.536432 8.91079,20.545112 8.91555,20.553792 C8.78129,20.704432 8.62617,20.837012 8.45299,20.943552 C8.29325,21.342972 8.14359,21.734272 7.99743,22.123052 L7.99743,22.123052 Z M49.21763,43.112832 C49.23555,43.471232 49.23793,43.785812 49.08309,44.004632 C48.99629,44.127272 48.85363,44.226392 48.70243,44.331252 L48.64531,44.371012 C47.88217,44.905532 47.21213,45.597412 46.70785,46.371612 L46.64989,46.461492 C46.57065,46.585252 46.49575,46.702152 46.40853,46.802532 C46.26279,46.970532 46.06469,47.111372 45.87303,47.247592 L43.64717,48.831272 C43.34771,49.044492 43.20645,49.270732 43.22297,49.505512 C43.06813,49.576912 42.91119,49.644812 42.75369,49.709772 C42.19509,49.940072 41.63663,50.170372 41.07817,50.400672 C40.60609,50.595272 40.13345,50.790292 39.64639,50.945692 C38.87373,51.192232 38.07111,51.337412 37.26751,51.457392 C34.75843,51.832172 32.10795,51.940952 29.70709,51.234792 C29.71325,51.200352 29.71829,51.165212 29.72193,51.129372 C29.78969,50.450792 29.31705,50.286432 29.00429,50.177652 C28.93569,50.153852 28.86443,50.129352 28.79401,50.098832 C28.39501,49.926212 27.84859,49.690032 27.48487,49.415212 C27.41305,49.360892 27.34375,49.297612 27.27039,49.230552 C27.17141,49.139972 27.06893,49.046172 26.94769,48.963432 C26.73363,48.817272 26.50095,48.732012 26.27583,48.649692 C26.13415,48.597892 26.00045,48.549032 25.87753,48.487292 C25.53593,48.315792 25.25859,48.036912 24.96501,47.741652 C24.70769,47.482932 24.44183,47.215392 24.11703,47.008332 L24.04437,46.962972 C23.94483,46.901652 23.85075,46.843692 23.80875,46.778312 C23.78131,46.735192 23.76381,46.670232 23.74365,46.594912 C23.72797,46.536672 23.71019,46.470592 23.68415,46.403672 C23.51167,45.960852 23.08019,45.736432 22.73355,45.555972 C22.66173,45.518592 22.59173,45.482192 22.52677,45.445232 C22.29437,45.312232 22.05385,45.265332 21.83027,45.297532 C21.82621,45.271492 21.82187,45.244192 21.81585,45.214512 C21.77805,45.026352 21.68467,44.840292 21.60417,44.666412 C21.43673,44.304652 21.23401,43.959972 21.03731,43.612912 C20.65595,42.939792 20.26941,42.230412 20.24799,41.443192 C20.24155,41.207712 20.26815,40.968592 20.21439,40.738852 C20.16357,40.521572 20.04415,40.326552 19.94671,40.124952 C19.72887,39.674292 19.61869,39.182892 19.49675,38.699052 C19.45909,38.549112 19.41835,38.395952 19.32805,38.269252 C19.26995,38.187912 19.19183,38.117772 19.15669,38.024672 C19.12925,37.952292 19.13093,37.872912 19.13303,37.795632 C19.14367,37.389632 19.15431,36.983632 19.16495,36.577632 C19.17083,36.351252 19.17545,36.117032 19.08683,35.907732 C19.03349,35.782012 18.94893,35.671272 18.89027,35.547792 C18.60145,34.939212 19.00241,34.246072 19.05827,33.577572 C19.09453,33.143152 18.98239,32.694732 19.10587,32.275992 C19.15599,32.106172 19.24335,31.947972 19.28423,31.775772 C19.32063,31.622472 19.31881,31.463432 19.32077,31.306072 C19.33001,30.569252 19.31041,29.827112 19.57753,29.166872 C19.69765,29.205512 19.82407,29.229732 19.95385,29.229732 C20.06907,29.229732 20.18695,29.210832 20.30497,29.166452 C20.82955,28.969472 21.00819,28.430052 21.08925,27.931932 C21.59941,27.720952 21.95781,27.271552 22.22675,26.934432 C22.32097,26.816412 22.43815,26.669412 22.48449,26.473832 C22.52355,26.308492 22.50129,26.156172 22.48155,26.021772 C22.46755,25.926292 22.45439,25.836132 22.47105,25.775652 C22.50605,25.649232 22.67167,25.578952 22.94033,25.478152 C23.19359,25.383092 23.48073,25.275432 23.67085,25.034072 C23.76927,24.909192 23.82149,24.772692 23.86755,24.652292 C23.89681,24.575852 23.92453,24.503752 23.95911,24.447892 C24.04451,24.310552 24.21209,24.205132 24.37421,24.103352 L25.95243,23.112432 C26.17909,22.970052 26.70969,22.636992 26.68995,22.097992 C26.68253,21.896812 26.60735,21.736232 26.49661,21.602672 C26.68575,21.509712 26.89029,21.440552 27.09133,21.374752 C28.54229,20.899592 30.00375,20.454532 31.47417,20.040132 C32.20931,19.832932 32.94683,19.633432 33.68631,19.441492 C34.37273,19.263552 35.06853,19.248012 35.77595,19.196632 C37.93531,19.039692 40.05659,19.503792 42.10759,20.187832 L42.11109,20.242292 C42.13587,20.644372 42.50407,20.885172 42.66129,20.988072 C43.22549,21.357252 43.83771,21.682612 44.42949,21.997332 C45.79183,22.721552 47.07871,23.405592 47.86733,24.590132 C48.12619,24.979332 48.31575,25.404652 48.43055,25.854472 L48.43685,25.879392 C48.47087,26.014212 48.51329,26.181932 48.63593,26.324172 C48.77775,26.488392 48.97697,26.570992 49.21581,26.570992 C49.39753,26.570992 49.60333,26.520032 49.82299,26.423852 C49.92673,26.563852 50.01913,26.711832 50.09445,26.868352 C50.23403,27.158432 50.32223,27.468952 50.40973,27.777792 C50.70653,28.824152 51.00319,29.870512 51.29999,30.916872 C51.38945,31.232292 51.38385,31.556252 51.31791,31.877132 C51.29929,31.967152 51.27017,32.057732 51.28067,32.148872 C51.31119,32.412072 51.64369,32.552632 51.70949,32.809532 C51.74463,32.946312 51.69675,33.092752 51.72783,33.230372 C51.75457,33.348532 51.83731,33.449752 51.85985,33.568752 C51.88421,33.696712 51.83605,33.825932 51.79559,33.949972 C51.59623,34.560652 51.56963,35.224252 51.71971,35.848232 C51.86937,36.470952 52.18787,37.132312 51.91921,37.715692 C51.73973,38.105452 51.33233,38.356192 51.13451,38.737552 C50.74937,39.479832 51.26835,40.456052 50.85409,41.183212 C50.78311,41.307812 50.68735,41.418272 50.62365,41.546372 C50.47903,41.837012 50.50857,42.194152 50.37123,42.481712 C50.23907,42.469812 50.10789,42.472192 49.98259,42.494172 C49.67179,42.548072 49.42343,42.703752 49.26383,42.943992 L49.21301,43.020712 L49.21763,43.112832 Z M64.58921,26.254452 C64.62547,26.414892 64.55841,26.605432 64.42051,26.684532 C64.41141,26.634692 64.40539,26.584432 64.40581,26.533612 C64.40693,26.393752 64.48127,26.268172 64.44501,26.130272 C64.39909,25.955412 64.20547,25.775512 64.10859,25.622352 C64.09977,25.608492 64.09165,25.594072 64.08297,25.580072 C64.14233,25.641112 64.20169,25.702292 64.26105,25.763472 C64.40049,25.907252 64.54567,26.061112 64.58921,26.254452 L64.58921,26.254452 Z M69.99279,39.529392 C70.03115,38.963092 69.90291,38.397072 69.92055,37.829792 C69.94239,37.129232 70.14903,36.313872 69.64825,35.811692 C69.46807,35.631092 69.18835,35.457772 69.24099,35.210952 C69.29531,34.956992 69.68941,34.840232 69.66827,34.581512 C69.65735,34.447952 69.53513,34.354432 69.44665,34.251952 C69.17477,33.937092 69.19955,33.479992 69.10379,33.078892 C69.00803,32.677932 68.61491,32.251912 68.22963,32.419632 C68.20443,32.109812 68.43179,31.798312 68.74007,31.720612 C68.74259,31.371732 68.47533,31.038392 68.12785,30.957052 C68.31069,30.632672 68.39329,30.255372 68.36235,29.886472 C67.72997,29.803452 67.41035,29.092672 67.33503,28.474152 C67.25971,27.855492 67.28911,27.173972 66.89557,26.683552 C66.79071,26.552932 66.65085,26.419372 66.66569,26.254032 C66.68669,26.018552 67.01835,25.845792 66.93799,25.622772 C66.89697,25.508532 66.76579,25.457152 66.66107,25.392332 C66.36567,25.209492 66.23463,24.860752 66.12305,24.537072 C65.77991,23.541952 65.43691,22.546972 65.09391,21.551852 C65.02293,21.346192 64.95111,21.138712 64.83617,20.952932 C64.74825,20.811252 64.63681,20.684972 64.52593,20.559392 C64.14443,20.127352 63.76293,19.695312 63.38129,19.263272 C63.09093,18.915932 63.74011,18.410812 63.56637,17.995712 C63.50813,17.856692 63.36939,17.768632 63.23751,17.691212 C62.44455,17.225992 61.61169,16.825452 60.75069,16.495332 C60.95061,16.052512 60.99737,15.528352 60.79675,15.085812 C60.66347,14.791952 60.41189,14.558572 60.12657,14.437752 C60.40041,14.156072 60.76399,13.953072 61.15193,13.873692 L61.79341,13.742512 L61.25553,13.369272 C60.11929,12.580932 58.99005,11.752552 57.89931,10.907092 C57.83841,10.860052 57.77555,10.811192 57.74769,10.765972 C57.72865,10.735172 57.71339,10.685052 57.69715,10.632272 C57.67937,10.574312 57.65921,10.508792 57.62743,10.441592 C57.48435,10.139612 57.19329,9.977632 56.98077,9.859472 L55.80435,9.204272 C55.71363,9.153732 55.61045,9.096472 55.56341,9.031512 C55.52253,8.975372 55.50195,8.886472 55.47815,8.783572 C55.46555,8.729252 55.45267,8.675072 55.43699,8.622292 C55.24743,7.982772 54.58999,7.522592 53.91393,7.552692 C53.39061,7.575652 52.90915,7.887992 52.65575,8.329132 C52.61725,8.315552 52.57959,8.297352 52.54431,8.272012 C52.40795,8.174152 52.40641,7.915012 52.57161,7.879172 C51.79587,7.449652 51.04701,6.973792 50.33063,6.455092 C50.66817,6.080732 50.12847,5.563852 49.66703,5.349652 C49.13853,5.104232 48.61003,4.858812 48.08153,4.613392 C47.66601,4.420472 47.17475,4.081672 47.29137,3.647112 C44.88659,3.085992 42.96215,1.314292 40.62989,0.513072 C37.51797,-0.555968 34.07257,0.216272 30.95617,1.272852 C29.61567,1.727292 28.29253,2.233392 27.00761,2.821252 C26.28563,3.151652 25.57611,3.507392 24.86673,3.863272 C24.11815,4.238752 23.36943,4.614232 22.62071,4.989712 C22.16249,5.219592 21.70399,5.449612 21.25627,5.698392 C20.79805,5.953052 20.35159,6.227172 19.90527,6.501152 C19.12869,6.977992 18.35211,7.454692 17.57553,7.931532 C17.45625,8.392412 16.98095,8.739752 16.49445,8.721552 C16.61359,8.974812 16.44083,9.285612 16.19261,9.423232 C15.94439,9.560852 15.64549,9.570232 15.36003,9.576252 C15.35457,9.758392 15.34925,9.940532 15.34379,10.122532 C14.95725,10.237752 14.73437,10.372572 14.55083,10.569832 C14.53753,10.505152 14.52451,10.441172 14.51191,10.378592 L14.46151,10.129532 L14.20881,10.155572 C13.77411,10.200232 13.40521,10.440752 13.09357,10.662792 C11.33503,11.915792 9.79083,13.527892 8.62785,15.325212 C8.38271,15.704052 8.12119,16.084152 7.86835,16.451932 C7.76083,16.608312 7.65331,16.764552 7.54663,16.921352 C7.29771,17.286892 7.06545,17.598952 6.74065,17.714312 C6.35047,17.852912 6.28005,18.106732 6.27277,18.245752 C6.25541,18.575872 6.54787,18.870012 6.82689,19.003432 C6.97207,19.073012 7.12789,19.115292 7.28917,19.141892 C6.98537,19.223372 6.78125,19.385072 6.79525,19.673612 C6.80351,19.843852 6.92629,19.997992 6.91481,20.168092 C6.90053,20.380052 6.69319,20.519212 6.53681,20.666772 C5.82967,21.334152 5.96057,22.589952 5.18623,23.181872 C4.93535,23.373672 4.61153,23.472512 4.39747,23.703092 C4.18355,23.933532 4.17823,24.391192 4.48385,24.479112 C3.87849,24.761072 3.47837,25.417252 3.51295,26.071192 C3.08749,26.115852 2.63389,26.171712 2.30797,26.442472 C1.98205,26.713232 1.88265,27.280092 2.22537,27.530272 C1.39335,28.208152 1.74027,29.629572 1.01311,30.414132 C0.84903,30.591232 0.63651,30.726192 0.50001,30.924292 C0.36351,31.122532 0.33313,31.426612 0.52479,31.575152 C0.67921,31.694712 0.94493,31.693452 1.01185,31.874472 C1.05147,31.982132 0.99365,32.097772 0.94913,32.203612 C0.52647,33.208112 1.20477,34.581792 0.40355,35.334992 C0.22491,35.502992 -0.03591,35.669452 0.00413,35.908432 C0.02807,36.052072 0.15855,36.152452 0.28077,36.235892 C0.70791,36.527232 1.21751,36.938132 1.07891,37.428412 C1.00723,37.682092 0.76209,37.909032 0.83377,38.162712 C0.91021,38.433052 1.27757,38.494372 1.47175,38.701012 C1.82245,39.074112 1.47707,39.710412 1.69743,40.168912 C1.80355,40.389832 2.02517,40.533612 2.17805,40.726672 C2.53827,41.181252 2.46813,41.817552 2.44447,42.391832 C2.42067,42.965972 2.52637,43.646932 3.04969,43.910132 C3.26515,44.018492 3.58519,44.127832 3.53437,44.359112 C3.50721,44.482032 3.37631,44.553012 3.30827,44.659692 C3.20397,44.823492 3.26445,45.036152 3.33361,45.216892 C3.74241,46.284812 4.36275,47.275032 5.15011,48.116992 C5.20275,48.889372 5.75043,49.532392 6.27179,50.115632 C6.87113,50.786232 7.47047,51.456692 8.06981,52.127152 C8.27729,52.359412 8.49191,52.597132 8.77303,52.737272 C8.95013,52.825752 9.15159,52.874332 9.30307,53.000332 C9.50271,53.166372 9.57551,53.431392 9.65475,53.675692 C10.03317,54.841612 10.80191,55.881672 11.80907,56.608272 C11.69567,56.685552 11.56841,56.759332 11.43373,56.834652 L10.91909,57.122772 L11.46761,57.339492 C11.92177,57.518832 12.39147,57.704472 12.79117,57.970472 C13.35943,58.348752 13.79735,58.885792 14.26089,59.454192 C14.84847,60.174632 15.45593,60.919432 16.35179,61.308912 C16.51839,61.381432 16.68821,61.437992 16.85243,61.492872 C17.04577,61.557412 17.22833,61.618312 17.39759,61.700772 C17.54767,61.773852 17.90355,61.979092 17.96389,62.302912 L17.99693,62.480712 L18.17277,62.523692 C18.28855,62.551832 18.46691,62.595372 18.65885,62.595372 C18.66403,62.595372 18.66935,62.594952 18.67453,62.594812 C18.96167,62.764632 19.41191,62.892872 19.60245,63.113232 C19.88301,63.437752 20.14061,63.825692 20.55431,63.956872 C20.84761,64.049832 21.19159,64.000832 21.44471,64.172612 C21.60893,64.284052 21.70287,64.469132 21.84497,64.606472 C22.29549,65.041452 23.09587,64.901452 23.58447,65.295272 C23.73399,65.415672 23.84235,65.578072 23.98683,65.704212 C24.15021,65.846592 24.35293,65.937312 24.55229,66.025792 C26.22403,66.768492 27.89591,67.511192 29.56765,68.253752 C29.95307,68.424972 30.33863,68.596192 30.72125,68.773432 C32.38739,69.513892 34.20389,69.930392 36.03341,69.991712 C37.13675,70.028812 38.24163,69.938092 39.33349,69.779332 C40.23033,69.648852 41.12493,69.471332 41.97235,69.156332 C43.01913,68.767132 43.97267,68.176752 44.91795,67.590432 C46.04705,66.890292 47.17615,66.190012 48.30525,65.489732 C49.19173,64.939952 50.08325,64.386392 50.85731,63.693672 C51.36999,63.234892 51.82583,62.719692 52.27579,62.202112 C52.89739,61.486992 53.51017,60.764732 54.12309,60.042472 C54.43963,59.669372 54.78011,59.282272 55.22671,59.085852 C55.41907,59.152912 55.62207,59.190712 55.82633,59.190712 C55.97501,59.190712 56.12411,59.171672 56.26929,59.132192 C56.92911,58.952292 57.35205,58.451372 57.76085,57.966972 C57.99717,57.686972 58.22047,57.422512 58.48367,57.220632 C58.81197,56.968492 59.20999,56.810292 59.63153,56.642992 C60.11845,56.449512 60.62161,56.249452 61.03433,55.887692 C61.65845,55.340852 61.95805,54.474392 61.81987,53.668972 C62.39961,53.384772 62.93189,52.993332 63.36981,52.527692 L63.76181,52.110912 L63.19215,52.057152 C62.88793,52.028452 62.55935,51.990932 62.23469,51.921352 C62.75717,50.981532 63.51037,50.176672 64.28149,49.412272 C65.44181,48.262032 66.65981,47.167232 67.92961,46.133192 C67.61699,46.036872 67.46719,45.665732 67.51703,45.349472 C67.56673,45.033212 67.76427,44.760632 67.95593,44.501072 C68.07913,44.334332 68.20835,44.162412 68.39287,44.063292 C68.68729,43.905092 69.15405,43.880592 69.19549,43.554812 C69.24057,43.199632 68.65901,42.979972 68.72565,42.628012 C68.77493,42.366912 69.12129,42.306292 69.34795,42.159572 C69.79329,41.871172 69.66967,41.070512 69.15699,40.923092 C69.69361,40.705112 69.95457,40.095552 69.99279,39.529392 L69.99279,39.529392 Z" id="Raft-symbol" fill="#FFFFFF"></path>
                        </g>
                    </g>
                </g>
            </g>
        </g>
    </g>
</svg>