<svg xmlns="http://www.w3.org/2000/svg" viewBox="0 0 100 100"><g fill="none"><path d="M33.128 62.807c-1.25 3.436-1.25 6.247-1.25 6.247s2.811 0 6.248-1.25"/><path d="M35.001 57.496s-1.25 2.499-2.187 5.311l5.309 5.309c2.811-.936 5.31-2.187 5.31-2.187m13.121-13.117L43.748 65.617l-8.433-8.433 12.806-12.806m-9.996 15.305l10.62-10.621m-7.496 13.745l10.308-10.623m-4.062-8.743s16.711-16.712 21.709-11.713c4.686 4.686-11.713 21.708-11.713 21.708l-9.996-9.995z"/><path d="M68.423 39.068c0 .312 1.25 6.558-6.871 14.993-5.672 5.889-10.906 6.274-11.713 5.466l6.715-6.715"/></g></svg>