<svg xmlns="http://www.w3.org/2000/svg" viewBox="0 0 100 100"><g fill="none"><path d="M35.941 30.791h29.981v38.418H35.941z"/><path d="M39.375 43.283h5.623v5.623h-5.623zm8.746 0h5.623v5.623h-5.623zm8.745 0h5.622v5.623h-5.622zM39.375 52.03h5.623v5.621h-5.623zm8.746 0h5.623v5.621h-5.623zm-8.746 8.744h5.623v5.624h-5.623zm8.746 0h5.623v5.624h-5.623zm8.745-8.744h5.622v14.368h-5.622zM39.375 33.757h23.113v6.56H39.375z"/><path d="M35.941 30.791h29.981v38.418H35.941z"/><path d="M39.375 43.283h5.623v5.623h-5.623zm8.746 0h5.623v5.623h-5.623zm8.745 0h5.622v5.623h-5.622zM39.375 52.03h5.623v5.621h-5.623zm8.746 0h5.623v5.621h-5.623zm-8.746 8.744h5.623v5.624h-5.623zm8.746 0h5.623v5.624h-5.623zm8.745-8.744h5.622v14.368h-5.622zM39.375 33.757h23.113v6.56H39.375z"/></g></svg>