<svg xmlns="http://www.w3.org/2000/svg" viewBox="0 0 100 100"><g fill="none"><path d="M53.442 59.277l2.955-.219v-4.373l-2.955-.219a9.676 9.676 0 0 0-2.609-4.515l1.29-2.672-3.788-2.188-1.667 2.452a9.666 9.666 0 0 0-2.608-.356c-.904 0-1.778.124-2.608.356l-1.667-2.452-3.788 2.188 1.291 2.672a9.646 9.646 0 0 0-2.609 4.515l-2.957.219v4.373l2.957.219a9.661 9.661 0 0 0 2.609 4.513l-1.291 2.674 3.788 2.186 1.667-2.45a9.71 9.71 0 0 0 2.608.355c.903 0 1.778-.124 2.608-.355l1.667 2.45 3.788-2.186-1.29-2.674a9.665 9.665 0 0 0 2.609-4.513z"/><circle cx="44.06" cy="56.872" r=".156"/><path d="M66.083 43.354l2.54-.188v-3.76l-2.54-.188a8.293 8.293 0 0 0-2.243-3.879l1.108-2.298-3.256-1.878-1.435 2.106a8.322 8.322 0 0 0-2.241-.305c-.776 0-1.527.106-2.241.305l-1.434-2.106-3.254 1.878 1.108 2.298a8.316 8.316 0 0 0-2.243 3.879l-2.542.188v3.76l2.542.188a8.293 8.293 0 0 0 2.243 3.88l-1.108 2.296 3.254 1.88 1.434-2.106a8.373 8.373 0 0 0 4.482 0l1.435 2.106 3.256-1.88-1.108-2.297a8.326 8.326 0 0 0 2.243-3.879z"/><circle cx="58.019" cy="41.287" r=".023"/></g></svg>