<svg xmlns="http://www.w3.org/2000/svg" viewBox="0 0 100 100"><g fill="none"><ellipse cx="51" cy="42.568" rx="14.414" ry="5.732"/><ellipse cx="51" cy="42.568" rx="3.027" ry="1.204"/><path d="M63.829 44.635c1.014.784 1.585 1.673 1.585 2.616 0 3.166-6.454 5.731-14.414 5.731s-14.414-2.566-14.414-5.731c0-.896.518-1.746 1.441-2.501"/><path d="M63.829 49.388c1.014.785 1.585 1.674 1.585 2.617 0 3.166-6.454 5.731-14.414 5.731s-14.414-2.565-14.414-5.731c0-.897.518-1.746 1.441-2.502"/><path d="M63.973 54.256c.924.755 1.441 1.604 1.441 2.501 0 3.166-6.454 5.732-14.414 5.732s-14.414-2.567-14.414-5.732c0-.849.464-1.655 1.297-2.38"/></g></svg>