<svg xmlns="http://www.w3.org/2000/svg" viewBox="0 0 100 100"><g fill="none"><path d="M43.811 40.237c-6.5 1.944-10.638 6.312-11.932 9.763 1.718 4.578 8.444 10.776 19.052 10.776 10.609 0 17.337-6.198 19.053-10.776-1.293-3.45-5.431-7.819-11.93-9.763"/><path d="M50.932 56.091c5.261 0 9.525-4.266 9.525-9.526a9.487 9.487 0 0 0-2.405-6.328c-2.128-.637-4.507-1.014-7.123-1.014-2.615 0-4.994.377-7.121 1.014a9.484 9.484 0 0 0-2.406 6.328c.003 5.261 4.269 9.526 9.53 9.526z"/><circle cx="50.932" cy="46.564" r=".809"/></g></svg>