<svg xmlns="http://www.w3.org/2000/svg" viewBox="0 0 100 100"><g fill="none"><path d="M36.29 53.984s6.197-3.047 12.512 0c-.117 3.164-1.521 6.562-5.613 6.562-6.081 0-6.081-6.914-6.081-6.914m28.648.352s-6.197-3.047-12.512 0c.117 3.164 1.521 6.562 5.613 6.562 6.08 0 6.08-6.914 6.08-6.914"/><path d="M48.684 55.391c0-.841 1.305-1.406 2.339-1.406 1.033 0 2.338.565 2.338 1.406m-16.253-1.758s1.871-8.086 2.456-11.016c.336-1.682.89-3.164 1.988-3.164 1.098 0 1.521 1.449 1.521 3.164m21.865 11.016s-1.871-8.086-2.455-11.016c-.336-1.682-.891-3.164-1.988-3.164s-1.52 1.449-1.52 3.164"/></g></svg>