<svg xmlns="http://www.w3.org/2000/svg" viewBox="0 0 100 100"><path d="M53.274 69.209h-4.686v-1.562h-2.056s-.007-5.07-.004-6.736c.004-2.889-1.25-3.394-2.885-5.028a10.282 10.282 0 0 1-3.019-7.289c0-2.846 1.154-5.422 3.019-7.288a10.278 10.278 0 0 1 7.289-3.019c2.847 0 5.422 1.153 7.288 3.019a10.282 10.282 0 0 1 3.019 7.288c0 2.847-1.155 5.423-3.019 7.289-1.635 1.635-2.889 2.14-2.885 5.028.002 1.666-.004 6.736-.004 6.736h-2.057v1.562zm-6.742-8.797h8.674M50.932 30.01v5.154m9.995-2.477L58.35 37.15m9.893 2.855l-4.462 2.578m-22.845-9.896l2.578 4.463m-9.894 2.855l4.463 2.576" fill="none"/></svg>