<svg xmlns="http://www.w3.org/2000/svg" viewBox="0 0 100 100"><path d="M59.209 67.647c0 .862-.699 1.562-1.562 1.562H41.249a1.562 1.562 0 0 1-1.562-1.562V45.002c0-.862.699-1.562 1.562-1.562h16.398c.861 0 1.562.698 1.562 1.562v22.645zm0-14.211c0-4.054 1.924-5.153 4.295-5.153s4.295 1.101 4.295 5.153c0 4.055-2.081 7.341-4.686 7.341-3.254 0-3.904.157-3.904 2.03M48.745 40.63s.937-1.575.937-4.025c0-1.412-1.25-3.325 0-6.125m3.749 10.15s.937-1.357.937-3.469c0-1.215-1.25-2.866 0-5.277M44.216 40.63s.937-1.357.937-3.469c0-1.215-1.25-2.866 0-5.277" fill="none"/></svg>