<svg xmlns="http://www.w3.org/2000/svg" viewBox="0 0 100 100"><path d="M51.535 45.448c4.61-4.61 6.374-4.747 6.374-4.747.317.656.748 1.27 1.292 1.813 2.618 2.618 5.445 1.213 8.063-1.405 2.617-2.618 4.034-5.458 1.416-8.075-1.29-1.292-3.251-2.212-4.941-2.231 0 0-4.882-.813-16.272 10.578-11.39 11.39-10.577 16.271-10.577 16.271.018 1.69.94 3.652 2.23 4.943 2.617 2.617 5.457 1.199 8.076-1.416 2.617-2.619 4.024-5.446 1.404-8.063a6.715 6.715 0 0 0-1.812-1.293c-.001-.001.136-1.764 4.747-6.375zM39.12 62.596c-.994 2.709-3.961 1.929-.681 5.676.54.616-3.28-.938-3.28 0v1.719" fill="none"/></svg>