<svg xmlns="http://www.w3.org/2000/svg" viewBox="0 0 100 100"><g fill="none"><path d="M57.561 50.178c0-.659-.184-1.275-.5-1.8A6.144 6.144 0 0 0 51 41.211a6.145 6.145 0 0 0-6.06 7.167 3.489 3.489 0 0 0 2.24 5.207v4.149h7.638v-4.149a3.49 3.49 0 0 0 2.743-3.407z"/><circle cx="47.928" cy="50.178" r="1.744"/><circle cx="54.072" cy="50.178" r="1.744"/><path d="M51 57.65v-2.988m1.91 2.988v-2.988m-3.82 2.988v-2.988m16.055-13.835c-1.373 1.373-5.767.795-5.767.795s-.578-4.394.795-5.767 2.017 2.955 2.017 2.955 4.328.644 2.955 2.017zm-28.29 18.346c1.373-1.373 5.767-.795 5.767-.795s.578 4.394-.795 5.767-2.017-2.955-2.017-2.955-4.328-.644-2.955-2.017zm19.653-14.681l2.87-2.87M42.622 58.378l4.276-4.276m13.275 10.043c-1.373-1.373-.795-5.767-.795-5.767s4.394-.578 5.767.795-2.955 2.017-2.955 2.017-.644 4.328-2.017 2.955zm-18.346-28.29c1.373 1.373.795 5.767.795 5.767s-4.394.578-5.767-.795 2.955-2.018 2.955-2.018.644-4.327 2.017-2.954zm13.04 18.012l4.511 4.511M42.622 41.622l2.987 2.987"/></g></svg>