<svg xmlns="http://www.w3.org/2000/svg" viewBox="0 0 100 100"><g fill="none"><circle cx="50.932" cy="50" r="19.209"/><path d="M54.472 41.424a9.144 9.144 0 0 1 2.892 1.948 9.136 9.136 0 0 1 1.95 2.89 9.102 9.102 0 0 1 .716 3.54 9.166 9.166 0 0 1-.716 3.539 9.277 9.277 0 0 1-.839 1.545 9.034 9.034 0 0 1-1.111 1.346 8.846 8.846 0 0 1-1.346 1.11 9.059 9.059 0 0 1-5.086 1.553 9.007 9.007 0 0 1-3.539-.715 9.042 9.042 0 0 1-2.892-1.948 9.016 9.016 0 0 1-1.11-1.346 9.019 9.019 0 0 1-1.368-3.252 9.129 9.129 0 0 1 .529-5.372 9.06 9.06 0 0 1 .839-1.544 8.966 8.966 0 0 1 1.11-1.346 9.016 9.016 0 0 1 1.346-1.11c.483-.327 1-.609 1.546-.838m3.539-5.734v10.607"/></g></svg>