<svg xmlns="http://www.w3.org/2000/svg" viewBox="0 0 100 100"><g fill="none"><path d="M57.327 43.806l-1.929-3.34s-1.446-2.505-1.931-3.34c-.481-.835-1.149-1.122-1.928-1.122s-1.447.286-1.929 1.122c-.482.835-5.462 9.38-5.462 9.38"/><path d="M51.93 42.437l5.509 1.476 1.478-5.511m-3.478 22.145h7.712c.965 0 1.547-.436 1.937-1.109s.476-1.396-.007-2.229l-5.114-8.886"/><path d="M59.325 56.559l-4.034 4.033 4.034 4.033M41.846 50.487l-1.929 3.34-1.929 3.34c-.482.835-.396 1.558-.007 2.231.389.672.971 1.107 1.936 1.107h10.976"/><path d="M43.358 55.846l-1.476-5.51-5.511 1.476"/></g></svg>