<svg xmlns="http://www.w3.org/2000/svg" viewBox="0 0 100 100"><g fill="none"><path d="M39.521 54.66c-.28-1.685-1.905-2.83-4.051-2.474-2.146.358-3.998 2.082-3.718 3.768s2.247 2.763 4.392 2.406c2.147-.359 3.658-2.015 3.377-3.7z"/><path d="M35.471 52.187s11.94-2.709 13.225-3.555c1.283-.847 3.33-4.254 10.67-5.191 4.534-.58 9.214 1.874 9.214 1.874l-19.521 3.124m-9.538-4.906c-.28 1.686-1.905 2.831-4.051 2.473-2.146-.357-3.998-2.082-3.718-3.768.28-1.686 2.247-2.762 4.392-2.405 2.147.359 3.658 2.015 3.377 3.7z"/><path d="M35.471 46.007s11.94 2.708 13.225 3.554c1.283.847 3.33 4.255 10.67 5.191 4.534.578 9.214-1.874 9.214-1.874l-19.521-3.036"/></g></svg>