<svg xmlns="http://www.w3.org/2000/svg" viewBox="0 0 100 100"><path d="M36.564 45.134a20.515 20.515 0 0 1 6.499-4.391 20.293 20.293 0 0 1 3.838-1.194 20.492 20.492 0 0 1 4.121-.417c1.412 0 2.791.144 4.121.417 1.332.273 2.615.675 3.838 1.194a20.44 20.44 0 0 1 6.5 4.391m-24.127 4.801a13.748 13.748 0 0 1 4.346-2.937 13.485 13.485 0 0 1 2.566-.798 13.745 13.745 0 0 1 8.076.798 13.645 13.645 0 0 1 4.346 2.937m-14.751 4.592a7.196 7.196 0 0 1 2.285-1.545 7.132 7.132 0 0 1 2.801-.566 7.133 7.133 0 0 1 4.021 1.23c.384.26.739.555 1.065.881m-5.086 1.098V65m0-5.977l-2.339-2.461m2.222 2.579l2.338-2.461" fill="none"/></svg>