<svg xmlns="http://www.w3.org/2000/svg" viewBox="0 0 100 100"><g fill="none"><path d="M46.091 57.989c-1.798-1.053-6.114-2.991-6.114-2.991V52.52c1.381-.768 3.823-2.229 3.839-6.316.011-2.805-1.719-4.211-3.839-4.211-2.121 0-3.84 1.406-3.84 4.211 0 4.087 2.458 5.549 3.84 6.316v2.479s-6.069 2.724-6.813 3.467c-.744.744-1.362 1.858-1.362 4.46v6.284h8.823m20.614-.001h8.863v-6.284c0-2.601-.619-3.716-1.361-4.46-.744-.743-6.813-3.467-6.813-3.467V52.52c1.385-.768 3.826-2.229 3.839-6.316.012-2.805-1.718-4.211-3.839-4.211-2.119 0-3.84 1.406-3.84 4.211 0 4.087 2.457 5.549 3.84 6.316v2.479s-4.137 1.858-5.997 2.923"/><path d="M59.521 59.995c-.938-.937-8.59-4.373-8.59-4.373v-3.123c1.744-.969 4.823-2.811 4.843-7.966.013-3.535-2.167-5.309-4.843-5.309-2.674 0-4.841 1.774-4.841 5.309 0 5.155 3.098 6.997 4.841 7.966v3.123s-7.651 3.438-8.588 4.373c-.938.938-1.718 2.343-1.718 5.622v3.592h20.614v-3.592c0-3.28-.781-4.684-1.718-5.622z"/></g></svg>