<svg xmlns="http://www.w3.org/2000/svg" viewBox="0 0 100 100"><g fill="none"><path d="M60.082 46.356c-.676 4.378-4.462 7.732-9.03 7.732m-2.449-9.255a6.092 6.092 0 0 1-5.868 7.731"/><path d="M60.54 41.551c-.332 0-.653.033-.967.096a9.141 9.141 0 0 0-16.444-1.252 6.093 6.093 0 1 0 2.13 11.622 9.105 9.105 0 0 0 5.792 2.07 9.124 9.124 0 0 0 7.061-3.336 4.92 4.92 0 1 0 2.428-9.2zM46.791 62.523l8.521-4.919m-.416 2.228l-1.712-.999m-.01-1.983l.01 1.983m-4.254 4.442l-.008-1.982m-1.714-.999l1.714.999m-2.131 1.23l8.521-4.919m-.416 2.228l-1.712-.999m-.01-1.983l.01 1.983m-4.254 4.442l-.008-1.982m-1.714-.999l1.714.999m2.13 3.689v-9.839m1.721 1.475l-1.721.986m-1.721-.986l1.721.986m1.721 5.903l-1.721-.984m-1.721.984l1.721-.984m0 2.459v-9.839m1.721 1.475l-1.721.986m-1.721-.986l1.721.986m1.721 5.903l-1.721-.984m-1.721.984l1.721-.984m4.26 0l-8.521-4.919m2.139-.754l-.008 1.983m-1.714.999l1.714-.999m5.974 1.46l-1.712.999m-.01 1.983l.01-1.983m2.128 1.231l-8.521-4.919m2.139-.754l-.008 1.983m-1.714.999l1.714-.999m5.974 1.46l-1.712.999m-.01 1.983l.01-1.983"/></g></svg>