<svg xmlns="http://www.w3.org/2000/svg" viewBox="0 0 100 100"><g fill="none"><path d="M63.184 45.664h2.806m-5.101-5.552l1.984-1.988m-7.523-.312V35m-5.54 5.112l-1.985-1.988m-.31 7.54h-2.807m16.181 5.552l1.984 1.989m-12.584-4.377a5.951 5.951 0 0 1-.903-3.164c0-3.301 2.67-5.977 5.963-5.977s5.963 2.676 5.963 5.977-2.67 5.977-5.963 5.977c-.197 0-.393-.01-.584-.027"/><path d="M57.002 53.708c-.281 0-.557.028-.822.082-1.13-2.915-3.955-4.981-7.262-4.981a7.777 7.777 0 0 0-6.75 3.914 5.196 5.196 0 0 0-5.526 5.19 5.196 5.196 0 0 0 5.19 5.202c.768 0 1.496-.167 2.152-.467a7.746 7.746 0 0 0 4.935 1.768 7.759 7.759 0 0 0 6.015-2.85 4.156 4.156 0 0 0 2.069.549 4.198 4.198 0 0 0 4.192-4.203 4.198 4.198 0 0 0-4.193-4.204zm-.391 4.104c-.575 3.739-3.801 6.603-7.693 6.603"/><path d="M46.831 56.511c.124.445.19.915.19 1.4a5.196 5.196 0 0 1-5.19 5.202"/></g></svg>