<svg xmlns="http://www.w3.org/2000/svg" viewBox="0 0 100 100"><g fill="none"><path d="M46.835 46.953a6.082 6.082 0 0 1-.139-1.289c0-3.301 2.67-5.977 5.963-5.977s5.963 2.676 5.963 5.977a5.96 5.96 0 0 1-1.058 3.398m2.93-3.398H63.3m-5.101-5.552l1.985-1.988m-7.524-.312V35m-5.54 5.112l-1.984-1.988m-.31 7.54h-2.807"/><path d="M60.493 51.873c-.331 0-.653.033-.966.096-1.321-3.415-4.631-5.835-8.504-5.835a9.114 9.114 0 0 0-7.908 4.583 6.427 6.427 0 0 0-.394-.013c-3.358 0-6.08 2.728-6.08 6.094s2.722 6.095 6.08 6.095c.899 0 1.753-.197 2.521-.547a9.074 9.074 0 0 0 5.781 2.07 9.09 9.09 0 0 0 7.045-3.337 4.892 4.892 0 0 0 2.425.642 4.916 4.916 0 0 0 4.911-4.923 4.917 4.917 0 0 0-4.911-4.925zm-.457 4.807c-.675 4.381-4.454 7.734-9.013 7.734"/><path d="M48.578 55.156c.146.521.223 1.072.223 1.641 0 3.366-2.722 6.094-6.081 6.094"/></g></svg>