<?xml version="1.0" encoding="UTF-8" standalone="no"?>
<svg
   xmlns:dc="http://purl.org/dc/elements/1.1/"
   xmlns:cc="http://creativecommons.org/ns#"
   xmlns:rdf="http://www.w3.org/1999/02/22-rdf-syntax-ns#"
   xmlns:svg="http://www.w3.org/2000/svg"
   xmlns="http://www.w3.org/2000/svg"
   version="1.1"
   id="svg2"
   viewBox="0 0 193.95486 193.95377"
   height="54.738064mm"
   width="54.738373mm">
  <defs
     id="defs4" />
  <metadata
     id="metadata7">
    <rdf:RDF>
      <cc:Work
         rdf:about="">
        <dc:format>image/svg+xml</dc:format>
        <dc:type
           rdf:resource="http://purl.org/dc/dcmitype/StillImage" />
        <dc:title></dc:title>
      </cc:Work>
    </rdf:RDF>
  </metadata>
  <g
     transform="translate(-5.3974483,-2.7916807)"
     id="layer1">
    <path
       id="background"
       d="M 102.37434,2.7916807 A 96.977228,96.977228 0 0 0 5.3974483,99.768568 96.977228,96.977228 0 0 0 102.37434,196.74545 96.977228,96.977228 0 0 0 199.35231,99.768568 96.977228,96.977228 0 0 0 102.37434,2.7916807 Z M 72.558183,68.675872 c 4.921681,0.01864 9.730505,0.267084 14.496553,1.283084 5.504721,1.172108 10.436471,3.92098 12.466729,9.453608 0.872105,2.386077 0.782275,4.493081 0.789255,6.976833 l 0,25.814283 c -0.007,3.00701 0.0972,5.65123 -1.458595,8.3722 -4.172146,7.31171 -14.581145,9.05593 -22.262638,9.06988 -7.625673,0.0139 -27.167794,0.57908 -33.488799,-0.69768 -4.646571,-0.94188 -9.028022,-2.19073 -12.488531,-5.65124 -5.400063,-5.41401 -4.255868,-13.17923 -4.255868,-20.16304 l 0,-15.349036 c 0.04186,-8.107074 2.539573,-13.284331 10.465249,-16.4239 6.83176,-2.63477 19.34995,-2.72044 26.739802,-2.586876 3.049629,-0.03756 6.04384,-0.10929 8.996843,-0.09812 z m 94.524097,0.265996 c 2.85034,-0.0081 6.09164,0.151308 6.85474,3.521118 1.13722,5.037268 -3.83007,5.533281 -7.34639,5.554212 -12.40769,0 -23.6323,-0.429371 -35.82931,0.304145 -6.44659,0.68373 -12.15735,1.34937 -12.31084,9.463421 l 0,6.976833 49.53552,0 c 1.63955,0 4.04657,-0.132343 5.47681,0.711854 2.59538,1.534903 2.89473,5.936639 0.5854,7.841309 -1.71629,1.4163 -4.64592,1.2144 -6.7599,1.2144 l -48.83783,0 c 0,3.48144 -0.6423,9.63457 1.75075,12.28577 2.4698,2.73492 6.68424,3.04931 10.10987,3.06326 l 36.27953,0 c 2.21863,0 5.57362,-0.18139 7.37364,1.29072 2.30933,1.89769 1.9884,6.20916 -0.55815,7.765 -1.39536,0.85117 -3.80848,0.71185 -5.42012,0.71185 l -37.6749,0 c -9.83733,-0.0139 -22.86308,-3.4047 -23.02355,-15.34903 l 0,-27.907333 c 0,-2.09305 -0.0837,-4.269821 0.59303,-6.279149 2.70004,-7.981492 13.45134,-11.072234 21.03515,-11.162933 l 36.97722,0 c 0.38285,0.0011 0.78214,-0.0045 1.18933,-0.0056 z m -91.32456,9.891837 c -0.43368,0.0076 -0.855756,0.02227 -1.261283,0.04141 l -27.907333,0 c -3.013986,0.886058 -5.986993,1.792617 -7.55678,4.750788 -1.095363,2.07212 -0.815419,5.958868 -0.815419,8.344945 l 0,18.139772 c 0.007,1.46513 -0.04949,3.46705 0.515633,4.82055 1.911652,4.57681 9.224026,4.94004 13.438033,4.94701 l 23.023549,0 c 3.872142,-0.007 9.579197,-0.21693 12.139689,-3.63558 1.318622,-1.75816 1.109317,-4.05986 1.116293,-6.13198 l 0,-21.628188 c -0.007,-3.690745 0.209088,-6.076822 -3.502587,-8.058242 -2.545668,-1.361353 -6.154036,-1.64401 -9.189795,-1.5905 z"
       style="fill:#000000" />
  </g>
</svg>
