<?xml version="1.0" encoding="UTF-8" standalone="no"?>
<svg
   xmlns:dc="http://purl.org/dc/elements/1.1/"
   xmlns:cc="http://creativecommons.org/ns#"
   xmlns:rdf="http://www.w3.org/1999/02/22-rdf-syntax-ns#"
   xmlns:svg="http://www.w3.org/2000/svg"
   xmlns="http://www.w3.org/2000/svg"
   xmlns:sodipodi="http://sodipodi.sourceforge.net/DTD/sodipodi-0.dtd"
   xmlns:inkscape="http://www.inkscape.org/namespaces/inkscape"
   width="41.000004"
   height="41"
   viewBox="0 0 41.000004 41"
   version="1.1"
   id="svg2"
   inkscape:version="0.91 r13725"
   sodipodi:docname="carry-blue.svg">
  <metadata
     id="metadata72">
    <rdf:RDF>
      <cc:Work
         rdf:about="">
        <dc:format>image/svg+xml</dc:format>
        <dc:type
           rdf:resource="http://purl.org/dc/dcmitype/StillImage" />
        <dc:title>Slice 1</dc:title>
      </cc:Work>
    </rdf:RDF>
  </metadata>
  <sodipodi:namedview
     pagecolor="#936969"
     bordercolor="#666666"
     borderopacity="1"
     objecttolerance="10"
     gridtolerance="10"
     guidetolerance="10"
     inkscape:pageopacity="0"
     inkscape:pageshadow="2"
     inkscape:window-width="1494"
     inkscape:window-height="818"
     id="namedview70"
     showgrid="false"
     fit-margin-top="0"
     fit-margin-left="0"
     fit-margin-right="0"
     fit-margin-bottom="0"
     inkscape:zoom="16"
     inkscape:cx="2.455407"
     inkscape:cy="19.615326"
     inkscape:window-x="75"
     inkscape:window-y="35"
     inkscape:window-maximized="0"
     inkscape:current-layer="Page-1" />
  <!-- Generator: Sketch 40.1 (33804) - http://www.bohemiancoding.com/sketch -->
  <title
     id="title4">Slice 1</title>
  <desc
     id="desc6">Created with Sketch.</desc>
  <defs
     id="defs8" />
  <g
     id="Page-1"
     transform="translate(-98.633305,-293.56998)"
     style="fill:none;fill-rule:evenodd;stroke:none;stroke-width:1">
    <path
       d="m 119.08877,334.06998 c 11.04677,0 20.04454,-8.99777 20.04454,-20.04454 0,-11.04677 -8.99777,-19.95546 -20.04454,-19.95546 -10.95769,0 -19.955465,8.90869 -19.955465,19.95546 0,11.04677 8.997775,20.04454 19.955465,20.04454 z"
       id="path4159"
       inkscape:connector-curvature="0"
       style="fill:none;fill-opacity:1;stroke:#1c4472;stroke-opacity:1"
       sodipodi:nodetypes="cssscc" />
    <g
       id="g4155"
       transform="translate(0.1875,0.875)">
      <path
         inkscape:connector-curvature="0"
         id="rect4143"
         d="m 114.59316,298.64147 c -0.80072,0 -1.44531,0.64459 -1.44531,1.44531 l 0,2.95117 c 0,0.0534 0.01,0.1044 0.0156,0.15625 l -6.92578,0 c -1.06882,0 -1.92969,0.85892 -1.92969,1.92774 l 0,16.94531 c 0,1.06882 0.86087,1.92969 1.92969,1.92969 l 25.3418,0 c 1.06882,0 1.92969,-0.86087 1.92969,-1.92969 l 0,-16.94531 c 0,-1.06882 -0.86087,-1.92774 -1.92969,-1.92774 l -6.96875,0 c 0.006,-0.0519 0.0156,-0.10286 0.0156,-0.15625 l 0,-2.95117 c 0,-0.80072 -0.64459,-1.44531 -1.44531,-1.44531 l -8.58789,0 z m 0.12109,1.1875 8.37696,0 c 0.21842,0 0.39453,0.17611 0.39453,0.39453 l 0,2.9707 -9.16602,0 0,-2.9707 c 0,-0.21842 0.17612,-0.39453 0.39453,-0.39453 z"
         style="opacity:1;fill:none;fill-opacity:1;fill-rule:evenodd;stroke:#1c4472;stroke-width:0.78399998;stroke-linecap:round;stroke-miterlimit:4;stroke-dasharray:none;stroke-opacity:1" />
      <path
         sodipodi:nodetypes="cscccccccccccccccccccccccccccccccccccccccccccccccscccccccccccccccccsccccccccccccccccccccccccccccccccccccccccccccscscccccscscscsccccccccc"
         style="fill:#1c4472;fill-opacity:1"
         inkscape:connector-curvature="0"
         id="path4153"
         d="m 125.99559,314.3531 c -0.11012,0 -0.22031,0 -0.22031,0.11012 l 0,0.33048 c 0,0 0.11013,0 0.11013,0.11013 0.22031,0 0.33047,-0.11013 0.33047,-0.11013 0.11013,-0.22032 0.11013,-0.33048 0,-0.44062 l -0.22031,0 0,0 0,0 z m -2.7539,-1.5422 c 0,0 0,-0.11012 -0.11013,-0.2203 l -1.76249,0 0,0.88123 c 0.22031,0.11013 1.65234,0.11013 1.76249,0 0.22031,-0.11012 0.11013,-0.44061 0.11013,-0.66093 z m 2.53359,-0.44062 c -0.11012,0.11013 -0.33047,0.11013 -0.33047,0.22032 -0.22031,0.33046 0,0.99139 0.44062,0.88123 0.66094,-0.11012 0.66094,-1.10155 -0.11012,-1.10155 l 0,0 z m -13.32884,0.77109 c -0.22031,-0.11012 -1.32187,0 -1.65233,0 l 0,0.66093 c 0.55077,0 1.2117,0.11013 1.65233,0 0,-0.11012 0.11012,-0.55077 0,-0.66093 z m -6.16872,1.54219 2.42342,0 0,-1.98282 -2.42342,0 0,1.98282 z m 25.1155,-0.55079 c -0.22031,0.33046 -0.44062,0.66095 -0.66093,1.10155 l -0.44063,0 c -0.66093,-1.10155 -1.2117,-2.09295 -1.76249,-3.08435 l 0.7711,0 c 0.44062,0.66093 0.88125,1.43202 1.21171,2.20313 l 0,0 c 0.44062,-0.77111 0.88124,-1.5422 1.21171,-2.20313 l 0.66093,0 c -0.22031,0.66093 -0.66093,1.32186 -0.9914,1.9828 l 0,0 z m -2.97419,-0.33047 0,0.99142 c -0.22032,0.66093 -1.76249,0.4406 -2.5336,0.4406 l -0.88125,0 c -0.2203,-0.11012 -0.33046,-0.22029 -0.44061,-0.4406 0,-0.33049 0,-2.20312 0.11013,-2.42344 0.33047,-0.33047 1.43202,-0.22031 2.09296,-0.22031 l 0,0 c -0.11012,0.66093 0.99139,0.88125 0.99139,0 0.88125,0 0.66095,0.88125 0.66095,1.65233 l 0,0 0,0 z m -4.18593,1.43202 -0.99141,0 -1.2117,-1.21169 -0.66093,0 0,1.21169 -0.7711,0 0,-3.08435 2.09296,0 c 0.33047,0 0.77109,-0.11012 0.9914,0.11013 0.33047,0.11012 0.44062,1.43202 0.11013,1.76249 -0.22033,0.11013 -0.66093,0 -0.88126,0.11013 l 0,0 c 0.44062,0.33047 0.88126,0.66094 1.32188,1.10156 l 0,0 0,0 z m -4.40623,0 -0.44062,0 c -0.11013,-0.11012 -0.33048,-0.22029 -0.44062,-0.33045 -0.55079,-0.44064 -1.10155,-0.88124 -1.65235,-1.43204 0,0.66094 0,1.21173 -0.11012,1.76249 l -0.55078,0 0,-2.53358 0.44062,0 c 0.11012,0.11013 0.33047,0.22032 0.44063,0.33048 0.55077,0.44061 1.10156,0.99141 1.76249,1.32188 0,-0.33047 -0.11013,-1.43204 0,-1.65236 l 0.55077,0 0,2.53358 0,0 0,0 z m -3.52499,0 -2.75389,0 0,-2.53358 2.64374,0 0,0.44063 -2.09295,0 0,0.55078 1.2117,0 0,0.44062 -1.2117,0 0,0.55079 2.2031,0 0,0.55076 0,0 z m -3.30466,-1.10155 c -0.33046,0.22033 -1.65234,0.11013 -2.20311,0.11013 l 0,0.9914 -0.55078,0 0,-2.53359 2.53357,0 c 0.11012,0 0.22032,0.11012 0.33047,0.22032 l 0,0.66093 c 0,0.22031 0,0.44063 -0.11013,0.55078 l 0,0 0,0 z m -3.74531,0.88126 c -0.22029,0.22029 -0.88124,0.22029 -1.43202,0.22029 -0.55077,0 -1.87264,0.11013 -2.09296,-0.33045 -0.2203,-0.22031 -0.11013,-1.43204 -0.11013,-1.87265 0,-0.22032 0,-0.55078 0.11013,-0.66094 0.11013,-0.11012 0.22032,-0.22031 0.44063,-0.22031 0.66093,0 2.86406,-0.22031 3.08435,0.22031 0.22033,0.22032 0.11013,1.10155 0.11013,1.54218 0,0.33048 0.11013,0.88126 -0.11013,1.10157 l 0,0 z m 17.62492,-1.65235 c -0.11012,0 -0.33046,0.11013 -0.33046,0.11013 -0.22031,0.33046 0,0.88125 0.44062,0.77109 0.44064,-0.11013 0.44064,-0.88125 -0.11012,-0.88125 l 0,0 z" />
    </g>
  </g>
</svg>
