<?xml version="1.0" encoding="UTF-8" standalone="no"?>
<svg
   xmlns:dc="http://purl.org/dc/elements/1.1/"
   xmlns:cc="http://creativecommons.org/ns#"
   xmlns:rdf="http://www.w3.org/1999/02/22-rdf-syntax-ns#"
   xmlns:svg="http://www.w3.org/2000/svg"
   xmlns="http://www.w3.org/2000/svg"
   xmlns:sodipodi="http://sodipodi.sourceforge.net/DTD/sodipodi-0.dtd"
   xmlns:inkscape="http://www.inkscape.org/namespaces/inkscape"
   width="41"
   height="41"
   viewBox="0 0 41 41"
   version="1.1"
   id="svg2"
   inkscape:version="0.91 r13725"
   sodipodi:docname="connectivity-blue.svg">
  <metadata
     id="metadata72">
    <rdf:RDF>
      <cc:Work
         rdf:about="">
        <dc:format>image/svg+xml</dc:format>
        <dc:type
           rdf:resource="http://purl.org/dc/dcmitype/StillImage" />
        <dc:title>Slice 1</dc:title>
      </cc:Work>
    </rdf:RDF>
  </metadata>
  <sodipodi:namedview
     pagecolor="#624949"
     bordercolor="#666666"
     borderopacity="1"
     objecttolerance="10"
     gridtolerance="10"
     guidetolerance="10"
     inkscape:pageopacity="0"
     inkscape:pageshadow="2"
     inkscape:window-width="1254"
     inkscape:window-height="797"
     id="namedview70"
     showgrid="false"
     fit-margin-top="0"
     fit-margin-left="0"
     fit-margin-right="0"
     fit-margin-bottom="0"
     inkscape:zoom="8"
     inkscape:cx="-22.767381"
     inkscape:cy="18.201664"
     inkscape:window-x="75"
     inkscape:window-y="34"
     inkscape:window-maximized="0"
     inkscape:current-layer="Page-1"
     showguides="false" />
  <!-- Generator: Sketch 40.1 (33804) - http://www.bohemiancoding.com/sketch -->
  <title
     id="title4">Slice 1</title>
  <desc
     id="desc6">Created with Sketch.</desc>
  <defs
     id="defs8" />
  <g
     id="Page-1"
     style="fill:none;fill-rule:evenodd;stroke:none;stroke-width:1"
     transform="translate(-98.5,-132.5)">
    <g
       id="g4185"
       transform="matrix(-0.5913788,0.8063939,-0.8063939,-0.5913788,306.96143,148.42099)">
      <g
         id="g3365">
        <g
           id="g4168"
           style="fill:#02aaff;fill-opacity:1">
          <g
             transform="translate(9.93708,-4.1484897)"
             id="g4143"
             style="fill:#02aaff;fill-opacity:1">
            <path
               id="rect4139"
               transform="matrix(-0.5913788,-0.80639389,0.80639389,-0.5913788,100.61151,180.96696)"
               d="m 13.546875,19.601562 c -1.179884,-0.04648 -2.359467,0.476018 -3.113281,1.503907 l -0.341797,0.466797 2.71875,1.46289 c 0.856895,0.461388 1.151819,1.446935 0.794922,1.933594 -0.356897,0.486659 -1.383497,0.498974 -2.083985,-0.177734 L 9.3027344,22.648438 8.96875,23.103516 C 7.7626467,24.748137 8.115144,27.043897 9.7597656,28.25 l 9.4667964,6.941406 c 1.644623,1.206104 3.940382,0.853606 5.146485,-0.791015 l 1.464844,-1.998047 c 1.206103,-1.644622 0.853606,-3.940381 -0.791016,-5.146485 l -9.466797,-6.941406 c -0.616733,-0.452289 -1.325273,-0.685 -2.033203,-0.712891 z m 11.431641,10.306641 a 1.2541945,2.8460569 36.254913 0 1 0.332031,0.113281 1.2541945,2.8460569 36.254913 0 1 -0.671875,3.03711 1.2541945,2.8460569 36.254913 0 1 -2.695313,1.552734 1.2541945,2.8460569 36.254913 0 1 0.671875,-3.035156 1.2541945,2.8460569 36.254913 0 1 2.363282,-1.667969 z"
               style="opacity:1;fill:#02aaff;fill-opacity:1;fill-rule:evenodd;stroke:none;stroke-width:12.66800022;stroke-linecap:round;stroke-miterlimit:4;stroke-dasharray:none;stroke-opacity:1"
               inkscape:connector-curvature="0" />
          </g>
          <path
             inkscape:connector-curvature="0"
             id="path4156"
             d="m 121.96381,155.92824 0.38981,2.78711 c 0.11162,0.79864 0.27775,0.80664 0.27775,0.80664 0,0 0.19116,-0.0131 0.29445,-0.77148 l 0.38385,-2.82227 -1.34586,0 z"
             style="opacity:1;fill:#02aaff;fill-opacity:1;fill-rule:evenodd;stroke:none;stroke-width:12.66800022;stroke-linecap:round;stroke-miterlimit:4;stroke-dasharray:none;stroke-opacity:1" />
        </g>
        <path
           style="fill:none;fill-rule:evenodd;stroke:#02aaff;stroke-width:0.69999999;stroke-linecap:round;stroke-linejoin:miter;stroke-miterlimit:4;stroke-dasharray:none;stroke-opacity:1"
           d="m 122.55734,157.55374 c 0,0 1.01348,2.84891 -3.42482,4.53756 -4.49212,1.70912 -6.17422,2.47488 -1.3579,6.27211"
           id="path4183"
           inkscape:connector-curvature="0"
           sodipodi:nodetypes="csc" />
      </g>
    </g>
    <g
       id="g3848"
       transform="matrix(0.02893807,0.00983329,-0.00983329,0.02893807,112.66087,137.01819)"
       style="display:inline;fill:#02aaff;fill-opacity:1">
      <circle
         r="70"
         cy="396.64789"
         cx="344.28571"
         transform="matrix(0.69695424,0,0,0.69695424,107.01816,136.7659)"
         id="path3812"
         style="fill:#02aaff;fill-opacity:1;stroke:none" />
      <path
         inkscape:connector-curvature="0"
         id="path3814"
         d="m 357.125,75.21875 c -88.70625,0 -167.24803,33.72297 -215.5,85.5625 l 40,61.65625 c 35.1157,-46.92077 100.54558,-78.46875 175.5,-78.46875 69.39712,0 130.63979,27.06257 167.21875,68.3125 L 565.8125,153.75 C 517.15423,105.90176 441.76173,75.21875 357.125,75.21875 Z"
         style="fill:#02aaff;fill-opacity:1;stroke:none" />
      <path
         inkscape:connector-curvature="0"
         id="path3822"
         d="m 350,229.5 c -50.45667,0 -96.51719,18.78113 -131.5625,49.6875 l 33.78125,52.09375 C 278.62505,309.04597 312.73394,295.625 350,295.625 c 34.98396,0 67.17684,11.81479 92.84375,31.65625 l 35.84375,-50.625 C 444.0107,247.23634 399.08938,229.5 350,229.5 Z"
         style="fill:#02aaff;fill-opacity:1;stroke:none" />
      <path
         inkscape:connector-curvature="0"
         style="fill:#02aaff;fill-opacity:1;stroke:none"
         d="m 372.15625,138.25 c -116.58406,0 -221.30767,45.12743 -293.4375,116.8125 l 37.90625,58.40625 c 53.30072,-61.70409 147.01391,-102.6875 253.78125,-102.6875 105.94617,0 199.07205,40.33953 252.59375,101.25 L 664.3125,253.75 C 592.20544,182.82091 488.03965,138.25 372.15625,138.25 Z"
         transform="translate(-16.162441,-216.17265)"
         id="path3824" />
    </g>
    <path
       d="M 118.95547,173 C 130.00223,173 139,164.00223 139,152.95546 139,141.90869 130.00223,133 118.95547,133 107.99778,133 99,141.90869 99,152.95546 99,164.00223 107.99778,173 118.95547,173 Z"
       id="path4159"
       inkscape:connector-curvature="0"
       style="fill:none;fill-opacity:1;fill-rule:evenodd;stroke:#02aaff;stroke-width:1;stroke-opacity:1"
       sodipodi:nodetypes="cssscc" />
  </g>
</svg>
