<?xml version="1.0" encoding="UTF-8" standalone="no"?>
<svg
   xmlns:dc="http://purl.org/dc/elements/1.1/"
   xmlns:cc="http://creativecommons.org/ns#"
   xmlns:rdf="http://www.w3.org/1999/02/22-rdf-syntax-ns#"
   xmlns:svg="http://www.w3.org/2000/svg"
   xmlns="http://www.w3.org/2000/svg"
   xmlns:sodipodi="http://sodipodi.sourceforge.net/DTD/sodipodi-0.dtd"
   xmlns:inkscape="http://www.inkscape.org/namespaces/inkscape"
   width="41"
   height="41"
   viewBox="0 0 41 41"
   version="1.1"
   id="svg2"
   inkscape:version="0.91 r13725"
   sodipodi:docname="control-blue.svg">
  <metadata
     id="metadata72">
    <rdf:RDF>
      <cc:Work
         rdf:about="">
        <dc:format>image/svg+xml</dc:format>
        <dc:type
           rdf:resource="http://purl.org/dc/dcmitype/StillImage" />
        <dc:title>Slice 1</dc:title>
      </cc:Work>
    </rdf:RDF>
  </metadata>
  <sodipodi:namedview
     pagecolor="#835353"
     bordercolor="#666666"
     borderopacity="1"
     objecttolerance="10"
     gridtolerance="10"
     guidetolerance="10"
     inkscape:pageopacity="0"
     inkscape:pageshadow="2"
     inkscape:window-width="1444"
     inkscape:window-height="814"
     id="namedview70"
     showgrid="false"
     fit-margin-top="0"
     fit-margin-left="0"
     fit-margin-right="0"
     fit-margin-bottom="0"
     inkscape:zoom="32.000001"
     inkscape:cx="26.371882"
     inkscape:cy="16.461628"
     inkscape:window-x="75"
     inkscape:window-y="34"
     inkscape:window-maximized="0"
     inkscape:current-layer="g4146" />
  <!-- Generator: Sketch 40.1 (33804) - http://www.bohemiancoding.com/sketch -->
  <title
     id="title4">Slice 1</title>
  <desc
     id="desc6">Created with Sketch.</desc>
  <defs
     id="defs8" />
  <g
     id="Page-1"
     transform="translate(-98.500001,-293.5)"
     style="fill:none;fill-rule:evenodd;stroke:none;stroke-width:1">
    <g
       id="g4146"
       transform="translate(5.2097317,-41.098995)">
      <path
         style="opacity:1;fill:#02aaff;fill-opacity:1;fill-rule:evenodd;stroke:none;stroke-width:12.66800022;stroke-linecap:round;stroke-miterlimit:4;stroke-dasharray:none;stroke-opacity:1"
         d="M 7.5429688 11.654297 C 5.6722891 11.654297 4.1660156 13.158617 4.1660156 15.029297 L 4.1660156 24.388672 C 4.1660156 26.259351 5.6722891 27.765625 7.5429688 27.765625 L 33.011719 27.765625 C 34.882398 27.765625 36.388672 26.259351 36.388672 24.388672 L 36.388672 15.029297 C 36.388672 13.158617 34.882398 11.654297 33.011719 11.654297 L 7.5429688 11.654297 z M 8.7246094 12.400391 L 31.830078 12.400391 C 33.527166 12.400391 34.894531 13.767756 34.894531 15.464844 L 34.894531 23.955078 C 34.894531 25.652166 33.527166 27.017578 31.830078 27.017578 L 8.7246094 27.017578 C 7.0275219 27.017578 5.6621094 25.652166 5.6621094 23.955078 L 5.6621094 15.464844 C 5.6621094 13.767756 7.0275219 12.400391 8.7246094 12.400391 z "
         transform="translate(93.290269,334.59899)"
         id="rect4136" />
      <path
         style="opacity:1;fill:#02aaff;fill-opacity:1;fill-rule:evenodd;stroke:none;stroke-width:12.66800022;stroke-linecap:round;stroke-miterlimit:4;stroke-dasharray:none;stroke-opacity:1"
         d="M 9.1835938 13.626953 C 7.7711759 13.626953 6.6347656 14.763364 6.6347656 16.175781 L 6.6347656 23.242188 C 6.6347656 24.654605 7.7711759 25.791016 9.1835938 25.791016 L 29.828125 25.791016 C 31.240543 25.791016 32.376953 24.654605 32.376953 23.242188 L 32.376953 16.175781 C 32.376953 14.763364 31.240543 13.626953 29.828125 13.626953 L 9.1835938 13.626953 z "
         transform="translate(93.290269,334.59899)"
         id="rect4140" />
      <ellipse
         ry="0.77181208"
         rx="0.82005036"
         cy="354.06708"
         cx="126.95638"
         id="path4144"
         style="opacity:1;fill:#02aaff;fill-opacity:1;fill-rule:evenodd;stroke:none;stroke-width:12.66800022;stroke-linecap:round;stroke-miterlimit:4;stroke-dasharray:none;stroke-opacity:1" />
    </g>
    <path
       d="M 118.95547,334 C 130.00223,334 139,325.00223 139,313.95546 139,302.90869 130.00223,294 118.95547,294 c -10.95769,0 -19.955469,8.90869 -19.955469,19.95546 0,11.04677 8.997779,20.04454 19.955469,20.04454 z"
       id="path4159"
       inkscape:connector-curvature="0"
       style="fill:none;fill-opacity:1;fill-rule:evenodd;stroke:#02aaff;stroke-width:1;stroke-opacity:1"
       sodipodi:nodetypes="cssscc" />
  </g>
</svg>
